<svg xmlns="http://www.w3.org/2000/svg" width="498" height="556" viewBox="0 0 498 556" version="1.1"><path d="M 346.768 14.725 C 348.565 14.947, 351.265 14.943, 352.768 14.715 C 354.271 14.486, 352.800 14.304, 349.500 14.310 C 346.200 14.315, 344.971 14.502, 346.768 14.725 M 373.269 16.693 C 374.242 16.947, 375.592 16.930, 376.269 16.656 C 376.946 16.382, 376.150 16.175, 374.500 16.195 C 372.850 16.215, 372.296 16.439, 373.269 16.693 M 109.269 18.693 C 110.242 18.947, 111.592 18.930, 112.269 18.656 C 112.946 18.382, 112.150 18.175, 110.500 18.195 C 108.850 18.215, 108.296 18.439, 109.269 18.693 M 175.231 25.725 C 173.433 25.947, 172.222 26.550, 172.540 27.065 C 172.879 27.614, 186.508 28, 205.559 28 C 233.729 28, 238 27.803, 238 26.500 C 238 25.197, 234.099 25.021, 208.250 25.160 C 191.887 25.248, 177.029 25.502, 175.231 25.725 M 151.250 26.662 C 148.522 27.763, 150.241 29, 154.500 29 C 157.833 29, 159 28.611, 159 27.500 C 159 26.014, 154.155 25.490, 151.250 26.662 M 118 27.655 C 116.075 27.840, 105.950 28.687, 95.500 29.538 C 70.093 31.607, 60.578 32.794, 52.282 34.927 C 35.511 39.241, 41.722 40.315, 64 36.954 C 84.810 33.813, 98.925 32.250, 117.898 30.984 C 135.717 29.796, 138 29.445, 138 27.893 C 138 27.055, 125.777 26.910, 118 27.655 M 359.750 27.689 C 358.788 27.941, 358 28.523, 358 28.984 C 358 29.921, 367.106 30.654, 390 31.557 C 405.798 32.180, 418.714 33.928, 440.998 38.459 C 454.651 41.235, 458 41.533, 458 39.975 C 458 35.453, 402.260 26.869, 374.500 27.116 C 367.350 27.180, 360.712 27.438, 359.750 27.689 M 28.952 49.625 C 27.852 52.519, 29.701 61.010, 31.500 61.325 C 32.073 61.425, 32.604 58.403, 32.743 54.250 C 32.942 48.327, 32.709 47, 31.468 47 C 30.634 47, 29.501 48.181, 28.952 49.625 M 469.561 56.395 C 466.783 65.500, 466.503 67.575, 467.931 68.457 C 469.290 69.297, 469.989 67.738, 472.091 59.180 C 474.209 50.554, 474.430 48, 473.061 48 C 472.544 48, 470.969 51.778, 469.561 56.395 M 95.086 64 C 95.116 69.225, 95.527 74.400, 96 75.500 C 96.559 76.801, 96.879 74.006, 96.914 67.500 C 96.945 62, 96.533 56.825, 96 56 C 95.339 54.977, 95.048 57.519, 95.086 64 M 20.355 66.500 C 20.352 71.450, 20.521 73.601, 20.731 71.280 C 20.940 68.959, 20.943 64.909, 20.736 62.280 C 20.530 59.651, 20.358 61.550, 20.355 66.500 M 111.413 63.500 C 110.348 67.151, 110.194 147.521, 111.250 148.581 C 111.662 148.995, 112.320 149.014, 112.710 148.623 C 113.811 147.522, 114.289 69.060, 113.223 64.500 L 112.288 60.500 111.413 63.500 M 483.441 94.500 C 483.442 110.450, 483.580 116.835, 483.748 108.689 C 483.916 100.543, 483.916 87.493, 483.747 79.689 C 483.579 71.885, 483.441 78.550, 483.441 94.500 M 31.521 104 C 32.107 133.125, 32.463 138, 34.001 138 C 35.805 138, 36.102 133.490, 35.513 115 C 34.826 93.449, 33.449 78.524, 31.924 76.090 C 31.256 75.025, 31.123 84.236, 31.521 104 M 468.499 78.470 C 467.171 83.243, 467.285 141.259, 468.623 141.706 C 469.240 141.913, 470.022 141.051, 470.359 139.791 C 471.209 136.617, 470.929 82.193, 470.044 78.500 L 469.324 75.500 468.499 78.470 M 95.667 81.667 C 94.620 82.714, 94.888 87, 96 87 C 96.550 87, 97 85.650, 97 84 C 97 80.893, 96.796 80.537, 95.667 81.667 M 20.382 103.500 C 20.384 110.100, 20.546 112.670, 20.741 109.211 C 20.937 105.752, 20.936 100.352, 20.738 97.211 C 20.540 94.070, 20.380 96.900, 20.382 103.500 M 253.070 100.591 C 247.828 102.001, 243.551 103.527, 215.500 113.997 C 176.794 128.444, 166.116 132.370, 152 137.344 C 121.179 148.206, 98.585 158.292, 89.317 165.325 C 82.637 170.395, 79.465 177.837, 81.607 183.418 C 82.653 186.143, 84 185.146, 84 181.648 C 84 169.370, 107.041 156.502, 164.500 136.690 C 170 134.793, 182.375 130.252, 192 126.599 C 220.841 115.651, 221.979 115.225, 236.137 110.060 C 243.638 107.324, 251.852 104.562, 254.392 103.923 C 261.046 102.247, 269.548 103.187, 276.096 106.321 C 282.848 109.553, 283.390 109.598, 282.678 106.877 C 282.142 104.827, 282.355 104.775, 288.811 105.355 C 292.490 105.685, 303.150 106.222, 312.500 106.547 C 321.850 106.873, 331.830 107.583, 334.677 108.125 C 340.621 109.258, 347.169 113.589, 350.030 118.280 C 352.941 123.055, 356.558 134.635, 360.405 151.500 C 362.286 159.750, 365.932 173.700, 368.506 182.500 C 375.312 205.770, 386 243.086, 386 243.577 C 386 243.810, 371.666 244, 354.146 244 L 322.291 244 320.160 236.750 C 318.987 232.762, 315.989 220.950, 313.497 210.500 C 311.005 200.050, 308.348 189.192, 307.592 186.370 C 306.232 181.295, 306.253 181.178, 309.537 175.370 C 316.276 163.450, 321.851 160.607, 335.512 162.122 C 339.356 162.548, 344.675 162.920, 347.333 162.949 C 354.370 163.023, 352.857 160.768, 344.925 159.358 C 325.137 155.841, 313.793 159.654, 307.519 171.933 L 305.185 176.500 304.438 173.500 C 304.027 171.850, 301.804 163.397, 299.498 154.715 C 297.192 146.033, 295.574 138.770, 295.903 138.575 C 296.231 138.380, 300.325 137.043, 305 135.603 C 318.103 131.568, 325 128.666, 325 127.188 C 325 125.386, 321.498 126.151, 306.784 131.166 C 295.529 135.003, 293.004 135.282, 292.997 132.691 C 292.995 132.036, 291.680 128.800, 290.074 125.500 C 287.821 120.871, 287.138 120.071, 287.087 122 C 287.051 123.375, 287.692 126.709, 288.511 129.409 C 289.330 132.109, 290 134.822, 290 135.438 C 290 136.054, 286.212 137.620, 281.583 138.919 C 272.423 141.488, 270.176 142.509, 271.270 143.604 C 271.918 144.251, 286.798 141.782, 290.262 140.453 C 291.737 139.887, 293.802 146.111, 300.469 171.228 L 303.051 180.956 300.167 186.728 C 293.665 199.739, 289.427 213.299, 293.802 207.091 C 294.736 205.767, 297.389 200.606, 299.698 195.624 C 302.071 190.503, 304.112 187.203, 304.393 188.032 C 304.666 188.840, 306.699 196.700, 308.909 205.500 C 311.119 214.300, 314.251 226.531, 315.867 232.680 C 317.483 238.830, 318.550 244.117, 318.236 244.430 C 317.923 244.744, 316.617 245, 315.333 245 C 314.050 245, 313 245.450, 313 246 C 313 246.550, 314.115 247, 315.477 247 C 318.607 247, 320.213 249.584, 322.467 258.250 C 323.432 261.962, 324.636 265, 325.142 265 C 327.025 265, 327.186 261.773, 325.616 255.522 C 324.727 251.984, 324 248.844, 324 248.544 C 324 248.245, 338.140 248, 355.422 248 L 386.845 248 387.875 251.250 C 389.771 257.230, 392.907 271.406, 394.442 280.931 C 395.980 290.480, 396.944 292.770, 398.913 291.554 C 400.799 290.388, 400.018 280.888, 397.127 269.821 C 394.348 259.185, 394.344 259.123, 396.135 254.404 C 397.124 251.799, 398.286 249.336, 398.717 248.931 C 399.827 247.889, 444 246.851, 444 247.868 C 444 248.951, 432.676 279.564, 430.820 283.500 C 425.268 295.268, 419.354 299, 406.257 299 C 402.815 299, 400 299.420, 400 299.933 C 400 302.930, 414.914 302.953, 421.857 299.966 C 430.153 296.397, 435.408 289.226, 440.962 273.895 C 442.037 270.928, 444.226 264.919, 445.825 260.541 L 448.733 252.583 450.366 255.742 C 452.341 259.560, 452.622 274.408, 450.801 278.685 C 449.978 280.618, 449.670 287.666, 449.819 301.180 C 449.960 313.939, 449.671 321.085, 448.998 321.501 C 448.426 321.854, 446.551 320.959, 444.831 319.511 C 440.170 315.589, 431.185 311.344, 421.297 308.392 C 411.565 305.487, 397.418 302.682, 395.642 303.307 C 393.498 304.061, 413.366 312, 417.397 312 C 418.200 312, 419.452 312.563, 420.179 313.250 C 420.905 313.938, 422.063 314.545, 422.750 314.600 C 426.663 314.913, 427.066 315.084, 426.405 316.155 C 425.989 316.827, 426.128 317.039, 426.738 316.662 C 428.616 315.501, 439.246 321.026, 443.568 325.410 C 450.655 332.598, 451.541 335.042, 451.218 346.500 C 450.703 364.798, 450.675 371.393, 451.057 384.639 L 451.437 397.778 448.219 402.955 C 446.448 405.803, 445 408.841, 445 409.706 C 445 412.579, 438.813 416.075, 429 418.749 C 421.205 420.872, 418.920 421.023, 386 421.573 C 369.775 421.844, 351.100 422.517, 344.500 423.068 C 337.900 423.619, 312.475 424.326, 288 424.638 L 243.500 425.207 238 422.353 C 228.123 417.229, 225.488 408.108, 227.895 387.373 C 228.881 378.878, 233.775 353.203, 234.611 352.135 C 234.768 351.934, 243.121 348.479, 253.174 344.457 C 263.227 340.435, 271.613 336.662, 271.809 336.072 C 272.426 334.222, 266.328 334.892, 259.773 337.394 C 256.323 338.711, 249.572 341.636, 244.772 343.894 C 239.971 346.152, 235.840 348, 235.591 348 C 235.343 348, 235.558 346.540, 236.070 344.757 C 237.187 340.861, 237.297 336.377, 236.250 337.398 C 235.838 337.801, 234.600 340.627, 233.500 343.680 C 231.382 349.556, 231.411 349.538, 218.500 353.399 C 217.950 353.563, 216.825 353.986, 216 354.338 C 212.251 355.939, 201.681 359.350, 193 361.760 C 179.499 365.508, 165.128 365.467, 152.617 361.645 C 147.732 360.153, 143.506 359.161, 143.226 359.441 C 142.267 360.399, 147.498 363.953, 153 366.081 C 165.157 370.784, 181.677 369.484, 206.984 361.833 C 214.418 359.586, 221.254 357.708, 222.177 357.659 C 223.099 357.611, 223.678 357.288, 223.464 356.942 C 223.250 356.596, 224.669 355.823, 226.618 355.225 C 229.778 354.255, 230.087 354.320, 229.475 355.819 C 227.166 361.472, 223.878 381.989, 223.437 393.500 C 223.163 400.650, 222.776 408.473, 222.577 410.885 C 222.378 413.297, 222.515 414.785, 222.882 414.192 C 223.251 413.595, 224.429 414.984, 225.524 417.307 L 227.500 421.500 166.500 420.893 C 103.422 420.266, 102.116 420.177, 94 415.956 C 89.059 413.386, 84.759 409.070, 85.421 407.345 C 85.731 406.536, 85.540 406.166, 84.989 406.507 C 84.099 407.057, 83.568 405.735, 83.882 403.750 C 83.947 403.337, 83.600 403, 83.111 403 C 82.623 403, 81.909 401.328, 81.526 399.285 C 81.142 397.241, 80.192 394.338, 79.414 392.834 C 77.582 389.291, 77.616 387, 79.500 387 C 81.217 387, 81.601 382.489, 79.969 381.481 C 79.359 381.104, 79.018 377.105, 79.134 371.672 C 79.241 366.627, 79.236 341.462, 79.123 315.750 C 78.944 274.814, 78.730 269, 77.408 269 C 75.256 269, 73 275.083, 73 280.886 C 73 286.464, 73.778 289.255, 75.105 288.435 C 75.597 288.131, 76 288.584, 76 289.441 C 76 290.298, 75.566 291, 75.035 291 C 73.763 291, 72.535 288.602, 69.507 280.207 C 65.368 268.734, 66.444 259.828, 72.730 253.543 C 75.146 251.127, 75.822 251, 86.291 251 L 97.310 251 91.405 254.847 C 88.157 256.963, 84.600 259.732, 83.500 261 L 81.500 263.305 84.770 262.674 C 86.569 262.326, 91.405 260.487, 95.518 258.587 L 102.995 255.132 103.580 257.816 C 103.902 259.292, 104.533 261.676, 104.983 263.113 L 105.801 265.727 98.746 266.318 C 86.613 267.335, 88.186 269.579, 101.500 270.249 L 106.500 270.500 108.652 276.928 C 110.661 282.929, 110.800 285.253, 110.744 311.928 C 110.711 327.643, 111.029 342.019, 111.449 343.875 C 112.057 346.557, 111.935 347.107, 110.857 346.551 C 110.111 346.166, 110.374 346.560, 111.441 347.426 C 115.425 350.656, 115.325 351.419, 115.011 320.250 C 114.910 310.212, 115.075 302, 115.377 302 C 115.679 302, 117.757 307.738, 119.995 314.750 C 127.324 337.717, 134.166 354, 136.487 354 C 138.596 354, 138.413 352.569, 135.078 342.938 C 116.590 289.555, 115.525 285.994, 115.511 277.500 L 115.500 270.500 134.500 269.287 C 144.950 268.620, 166.485 267.650, 182.355 267.132 C 200.119 266.552, 211.618 265.782, 212.272 265.128 C 214.335 263.065, 209.945 262.762, 187.219 263.397 C 174.724 263.746, 153.363 264.300, 139.750 264.628 L 115 265.224 115.042 255.862 L 115.085 246.500 118.619 244.245 C 127.623 238.501, 133 237.971, 171 239.088 C 180.336 239.362, 186.197 239.060, 190 238.109 C 197.110 236.331, 208.105 231.978, 207.590 231.146 C 207.371 230.791, 208.836 230.449, 210.845 230.387 C 212.855 230.325, 217.039 229.929, 220.142 229.508 C 225.517 228.779, 225.817 228.855, 226.503 231.121 C 227.993 236.049, 230.276 240, 231.633 240 C 232.994 240, 232.940 238.652, 231.339 232.749 C 230.927 231.229, 231.218 231.132, 233.545 232.017 C 235.019 232.577, 238.762 234.510, 241.862 236.312 C 250.024 241.055, 256.674 243.686, 263.500 244.875 C 271.199 246.215, 282.290 246.557, 283.990 245.506 C 284.866 244.965, 285.069 245.079, 284.595 245.845 C 283.567 247.509, 285.531 247.270, 286.951 245.558 C 287.944 244.362, 287.498 243.954, 284.324 243.158 C 282.221 242.631, 276.459 241.919, 271.519 241.576 C 259.610 240.750, 257.096 239.974, 246.500 233.861 C 241.550 231.005, 235.476 227.888, 233.002 226.935 C 228.937 225.369, 228.289 224.647, 226.266 219.421 C 225.034 216.242, 224.159 213.508, 224.320 213.346 C 224.482 213.185, 230.326 212.747, 237.307 212.374 C 246.949 211.858, 250 211.371, 250 210.348 C 250 209.606, 249.887 208.945, 249.750 208.878 C 249.613 208.811, 243.217 208.473, 235.538 208.128 L 221.577 207.500 220.145 203.500 C 215.185 189.641, 208 175.667, 208 179.879 C 208 181.365, 213.217 196.200, 215.917 202.392 C 217.090 205.082, 217.796 207.538, 217.484 207.849 C 217.173 208.160, 208.274 208.711, 197.709 209.074 C 178.336 209.738, 173.166 210.669, 167.742 214.468 C 164.992 216.394, 166.071 216.393, 177 214.459 C 188.811 212.369, 201.516 211.640, 211.546 212.475 L 220.050 213.184 221.554 216.783 C 224.763 224.463, 224.673 225, 220.185 225 C 215.064 225, 206 227.065, 206 228.231 C 206 228.719, 205.634 228.892, 205.187 228.615 C 204.739 228.339, 201.252 229.260, 197.437 230.661 C 188.541 233.930, 175.218 234.588, 154.084 232.802 L 138.668 231.500 148.807 226.199 C 154.383 223.283, 159.211 220.467, 159.536 219.942 C 162.103 215.788, 146.864 221.548, 134.701 229.328 C 131.567 231.333, 125.903 234.534, 122.116 236.442 L 115.229 239.910 114.570 231.205 C 113.155 212.505, 111.497 212.554, 110.491 231.325 C 109.858 243.153, 109.551 244.800, 107.771 245.911 C 105.322 247.440, 104.683 246.767, 103.109 241 C 97.905 221.928, 88.748 198.695, 85.310 195.842 C 83.466 194.312, 84.058 196.828, 88.763 210.500 C 96.125 231.895, 101 246.416, 100.999 246.946 C 100.998 247.251, 87.342 247.500, 70.651 247.500 C 47.937 247.500, 39.929 247.813, 38.809 248.743 C 37.490 249.838, 37.234 246.994, 36.648 224.743 C 35.117 166.608, 34.647 155.100, 33.824 155.609 C 32.908 156.175, 33.521 266.593, 34.598 295.239 C 34.997 305.828, 35.590 311.753, 36.214 311.368 C 36.860 310.968, 36.862 311.403, 36.220 312.629 C 35.659 313.702, 35.033 330.504, 34.755 352 C 34.297 387.273, 35.008 407.646, 36.742 408.936 C 37.159 409.246, 37.603 411.421, 37.728 413.769 C 37.854 416.117, 39.477 421.292, 41.335 425.269 C 47.583 438.646, 55.963 443.428, 81 447.906 C 91.218 449.733, 98.375 449.973, 150.594 450.237 C 193.399 450.453, 202.982 450.257, 204.333 449.137 C 206.995 446.930, 205.294 446, 198.595 446 C 188.206 446, 174 444.758, 174 443.850 C 174 443.383, 175.357 443, 177.016 443 C 180.494 443, 188 440.838, 188 439.836 C 188 439.464, 189.300 438.873, 190.888 438.525 C 194.266 437.783, 201 431.426, 201 428.979 C 201 427.521, 202.731 427.197, 213.750 426.593 C 222.262 426.126, 226.952 425.447, 227.861 424.550 C 229.003 423.423, 230.214 423.730, 235.361 426.449 C 238.738 428.232, 242.007 429.517, 242.627 429.303 C 244.390 428.696, 245.047 431.716, 243.441 433.049 C 241.216 434.896, 241.578 442.308, 244 444.500 C 245.100 445.495, 246 446.690, 246 447.155 C 246 447.620, 240.713 448.045, 234.250 448.100 C 227.787 448.155, 221.375 448.543, 220 448.962 C 214.570 450.618, 221.665 451.500, 240 451.446 C 423.799 450.906, 420.062 450.985, 434.902 447.313 C 454.519 442.459, 465.143 430.913, 465.143 414.447 C 465.143 411.245, 465.786 407.381, 466.571 405.862 C 468.215 402.683, 468.475 396.411, 467 395.500 C 466.450 395.160, 466.007 394.346, 466.015 393.691 C 466.026 392.879, 466.300 392.925, 466.877 393.835 C 467.512 394.837, 467.903 394.587, 468.448 392.835 C 470.047 387.690, 472.135 160.802, 470.598 159.265 C 470.269 158.936, 469.821 158.854, 469.602 159.083 C 469.384 159.312, 468.875 178.063, 468.471 200.750 L 467.736 242 459.761 242 C 452.555 242, 451.856 241.831, 452.513 240.250 C 456.919 229.648, 457.191 219.783, 453.295 211.964 C 450.108 205.570, 436.241 191.271, 427.450 185.315 C 409.166 172.928, 394.978 166.969, 378.555 164.778 L 368.676 163.461 363.369 144.980 C 356.476 120.978, 355.467 118.462, 350.634 113.219 C 342.837 104.760, 333.180 102.028, 311 102.006 C 305.775 102.001, 295.200 101.327, 287.500 100.509 C 270.194 98.670, 260.127 98.694, 253.070 100.591 M 251.915 148.051 C 247.229 149.161, 233.458 155.449, 232.572 156.883 C 231.600 158.456, 231.608 158.455, 245.489 153.847 C 253.257 151.269, 258 149.183, 258 148.347 C 258 146.851, 257.150 146.810, 251.915 148.051 M 198 160.802 C 198 161.743, 208.146 166.187, 208.801 165.532 C 209.807 164.526, 207.882 161.906, 205.461 160.985 C 202.337 159.798, 198 159.691, 198 160.802 M 159 164.582 C 153.775 165.301, 142.444 166.387, 133.821 166.994 C 125.197 167.602, 116.779 168.490, 115.112 168.968 C 112.540 169.705, 111.987 169.536, 111.450 167.843 C 110.911 166.143, 109.995 165.499, 110.252 167 C 110.299 167.275, 109.796 168.512, 109.134 169.750 C 108.362 171.192, 108.301 172, 108.965 172 C 109.586 172, 110 174.978, 110 179.441 C 110 186.074, 111.047 189.287, 112.677 187.657 C 112.976 187.357, 113.169 183.712, 113.107 179.556 C 113.019 173.673, 113.305 172, 114.401 172 C 115.175 172, 126.764 171.084, 140.154 169.965 C 164.862 167.899, 174.043 166.370, 174.766 164.202 C 175.258 162.727, 171.900 162.808, 159 164.582 M 370 168.049 C 370 168.744, 371.324 174.079, 372.942 179.906 C 377.632 196.793, 386.051 227.803, 388.252 236.302 L 390.274 244.104 393.825 243.802 L 397.377 243.500 401.538 231 C 403.826 224.125, 407.331 214.900, 409.328 210.500 C 416.049 195.689, 416.465 188.446, 410.976 181.787 C 406.752 176.663, 399.484 173.474, 385.217 170.485 C 378.462 169.070, 372.274 167.659, 371.467 167.349 C 370.655 167.037, 370 167.350, 370 168.049 M 417.653 190.218 C 418.123 197.129, 417.415 199.470, 406.626 226.700 C 403.532 234.511, 400.999 241.486, 400.998 242.200 C 400.997 243.243, 405.524 243.401, 423.917 243 C 436.523 242.725, 447.041 242.275, 447.289 242 C 449.065 240.034, 452.270 230.532, 452.712 225.923 C 453.422 218.518, 450.884 212.836, 443.294 204.838 C 437.085 198.297, 426.247 189.258, 420.655 185.959 L 417.225 183.935 417.653 190.218 M 356.857 207.153 C 352.839 214.804, 347 228.184, 347 229.740 C 347 232.022, 349.731 229.451, 351.961 225.067 C 354.409 220.255, 360.159 203.825, 359.592 203.259 C 359.343 203.010, 358.112 204.762, 356.857 207.153 M 295.008 243.948 C 292.319 245.694, 295.389 247.133, 301.107 246.807 C 305.098 246.580, 306.500 246.110, 306.500 245 C 306.500 243.215, 297.419 242.384, 295.008 243.948 M 392 248.918 C 392 249.423, 392.288 250.586, 392.639 251.502 C 393.149 252.831, 393.449 252.898, 394.124 251.834 C 395.438 249.761, 395.151 248, 393.500 248 C 392.675 248, 392 248.413, 392 248.918 M 108.173 250.883 C 107.079 251.567, 107.071 252.486, 108.129 256.107 C 109.290 260.081, 109.447 260.238, 109.773 257.750 C 110.388 253.051, 109.665 249.949, 108.173 250.883 M 38.355 263.500 C 38.352 268.450, 38.521 270.601, 38.731 268.280 C 38.940 265.959, 38.943 261.909, 38.736 259.280 C 38.530 256.651, 38.358 258.550, 38.355 263.500 M 19.524 356.250 C 19.217 411.388, 18.875 464.375, 18.764 474 C 18.549 492.611, 19.652 507.667, 21.305 508.689 C 21.885 509.047, 21.998 508.805, 21.572 508.117 C 21.167 507.462, 20.889 450.467, 20.954 381.463 C 21.018 312.458, 20.849 256, 20.576 256 C 20.304 256, 19.831 301.112, 19.524 356.250 M 328.366 277.250 C 330.936 302.217, 330.345 306.707, 323.599 313.454 C 320.506 316.547, 316.999 318.626, 310.928 320.967 C 306.311 322.748, 301.851 324.338, 301.017 324.501 C 300.183 324.664, 296.826 325.739, 293.558 326.890 C 287.783 328.925, 285.170 330.504, 286.077 331.411 C 286.864 332.197, 302.069 329.187, 303.560 327.951 C 304.352 327.293, 305 327.029, 305 327.363 C 305 327.697, 307.363 327.026, 310.250 325.872 C 313.137 324.718, 318.260 323.184, 321.634 322.463 C 325.008 321.743, 333.783 319.053, 341.134 316.486 C 348.485 313.919, 362.150 309.196, 371.500 305.990 C 382.953 302.064, 388.605 299.647, 388.823 298.581 C 389.382 295.848, 384.321 296.732, 369 302.042 C 340.768 311.828, 328.579 316, 328.224 316 C 328.026 316, 328.720 314.762, 329.766 313.250 C 335.917 304.359, 336.614 292.135, 331.957 274.841 C 331.305 272.417, 330.332 271, 329.323 271 C 327.958 271, 327.817 271.919, 328.366 277.250 M 346.036 280.374 C 348.363 282.557, 368.200 288.200, 369.384 287.016 C 370.062 286.338, 369.754 285.537, 368.446 284.572 C 366.191 282.909, 351.372 279, 347.322 279 C 344.945 279, 344.771 279.187, 346.036 280.374 M 183.655 290.500 C 182.390 298.795, 180.863 333.512, 181.516 339.140 C 182.194 344.977, 183.323 347.205, 184.306 344.644 C 185.360 341.899, 186.199 291.497, 185.233 289 C 184.311 286.617, 184.237 286.688, 183.655 290.500 M 304.500 290.591 C 302.300 291.388, 299.150 292.646, 297.500 293.387 C 283.101 299.851, 280 301.414, 280 302.207 C 280 302.708, 279.581 302.859, 279.069 302.543 C 278.557 302.226, 277.856 302.425, 277.510 302.984 C 276.461 304.681, 278.369 304.184, 290.892 299.500 C 297.508 297.025, 303.407 295, 304.001 295 C 305.850 295, 313 291.011, 313 289.980 C 313 288.607, 309.224 288.879, 304.500 290.591 M 238 295.442 C 238 298.015, 243.525 311.992, 244.424 311.693 C 247.554 310.650, 245.307 301.627, 240.856 297.362 C 239.285 295.857, 238 294.993, 238 295.442 M 392.667 295.667 C 391.399 296.934, 392.008 298, 394 298 C 395.111 298, 396 297.333, 396 296.500 C 396 294.978, 393.885 294.449, 392.667 295.667 M 205.595 325.500 C 203.569 326.875, 201.455 328, 200.897 328 C 200.339 328, 200.157 328.445, 200.493 328.989 C 200.829 329.532, 200.518 329.756, 199.802 329.487 C 198.062 328.831, 191.736 332.763, 192.511 334.018 C 192.903 334.652, 193.906 334.586, 195.311 333.834 C 196.515 333.189, 197.500 332.770, 197.500 332.901 C 197.500 333.175, 200.720 331.982, 206.463 329.581 C 210.626 327.840, 214 325.273, 214 323.845 C 214 322.125, 209.165 323.077, 205.595 325.500 M 341 325.912 C 341 328.442, 353.410 333.144, 368.988 336.517 C 374.770 337.768, 385.465 340.076, 392.755 341.646 L 406.010 344.500 407.147 347.946 C 407.948 350.374, 408.035 355.398, 407.439 364.946 C 406.043 387.309, 406.214 394.410, 408.155 394.788 C 409.418 395.034, 410.070 393.900, 410.905 390.006 C 412.308 383.467, 412.355 348.532, 410.965 345.934 C 410.044 344.213, 410.275 344, 413.061 344 C 416.710 344, 427.007 341.174, 426.985 340.179 C 426.976 339.806, 426.550 338.837, 426.038 338.027 C 425.222 336.737, 424.300 336.768, 418.639 338.277 C 409.146 340.806, 405.816 340.499, 383.643 335.047 C 372.565 332.322, 359.225 329.156, 354 328.011 C 348.775 326.866, 343.712 325.690, 342.750 325.397 C 341.788 325.105, 341 325.336, 341 325.912 M 306.518 350.099 C 305.557 352.592, 306.380 365.500, 307.500 365.500 C 308.834 365.500, 309.358 352.460, 308.113 350.243 C 307.238 348.685, 307.069 348.669, 306.518 350.099 M 110.625 379.532 C 109.915 385.579, 110.292 387, 112.607 387 C 113.796 387, 114.036 385.760, 113.798 380.829 C 113.414 372.875, 111.500 372.093, 110.625 379.532 M 74 379.059 C 74 380.191, 74.430 380.852, 74.956 380.527 C 75.482 380.202, 75.659 379.275, 75.349 378.468 C 74.556 376.401, 74 376.644, 74 379.059 M 181.667 386.667 C 180.125 388.208, 181.083 390.127, 183.240 389.820 C 186.071 389.416, 186.965 386, 184.240 386 C 183.191 386, 182.033 386.300, 181.667 386.667 M 141.500 396.692 C 138.750 397.555, 135.375 398.690, 134 399.215 C 132.625 399.740, 127.937 401.369, 123.583 402.835 C 114.561 405.872, 111.918 408.661, 119.131 407.532 C 121.534 407.156, 127.224 405.714, 131.776 404.327 C 136.328 402.941, 140.739 402.070, 141.578 402.392 C 142.417 402.714, 142.861 402.584, 142.563 402.103 C 142.266 401.622, 144.577 400.389, 147.699 399.364 C 150.821 398.339, 153.554 396.938, 153.771 396.250 C 154.327 394.494, 147.753 394.730, 141.500 396.692 M 462 398.108 C 462 399.084, 462.526 400.207, 463.170 400.605 C 463.938 401.080, 464.137 400.798, 463.748 399.786 C 463.423 398.938, 463.586 397.814, 464.111 397.289 C 464.718 396.682, 464.508 396.333, 463.533 396.333 C 462.690 396.333, 462 397.132, 462 398.108 M 405.455 401.792 C 404.890 402.181, 404.293 404.228, 404.129 406.340 C 403.876 409.604, 404.106 410.127, 405.666 409.831 C 406.928 409.592, 407.601 408.432, 407.823 406.115 C 408.168 402.517, 407.136 400.634, 405.455 401.792 M 281.052 407.923 C 279.899 408.672, 280.115 408.991, 282.118 409.494 C 285.705 410.394, 294.500 409.688, 294.500 408.500 C 294.500 407.196, 282.936 406.700, 281.052 407.923 M 312.578 407.999 C 305.715 408.580, 304.072 410.522, 309.699 411.401 C 311.789 411.728, 328.254 412.109, 346.286 412.247 C 374.397 412.464, 379.203 412.288, 379.991 411.014 C 380.594 410.038, 380.496 409.308, 379.705 408.884 C 378.198 408.077, 320.620 407.318, 312.578 407.999 M 82 414.806 C 82 415.328, 82.675 416.315, 83.500 417 C 84.325 417.685, 85 417.933, 85 417.551 C 85 417.169, 84.325 416.182, 83.500 415.357 C 82.675 414.532, 82 414.284, 82 414.806 M 62.789 416.682 C 61.847 416.929, 58.383 419.876, 55.091 423.230 C 50.150 428.264, 49.277 429.649, 50.088 431.164 C 50.628 432.174, 51.527 433, 52.085 433 C 52.642 433, 55.889 430.304, 59.299 427.009 C 66.083 420.454, 68.610 419.713, 74.241 422.625 C 79.720 425.458, 82.773 425.958, 85.741 424.508 C 92.104 421.401, 92.798 421.748, 105.251 434.271 C 116.152 445.233, 117.169 446, 120.804 446 L 124.693 446 113.118 434.750 C 106.752 428.563, 101.309 423.250, 101.022 422.944 C 100.735 422.639, 97.634 421.357, 94.132 420.097 C 88.407 418.038, 87.311 417.933, 83.287 419.060 C 80.332 419.887, 78.589 419.971, 78.156 419.306 C 76.325 416.495, 68.549 415.168, 62.789 416.682 M 458.079 423.750 C 458.036 424.438, 457.373 425, 456.607 425 C 455.841 425, 454.937 425.722, 454.599 426.604 C 454.259 427.489, 453.338 427.960, 452.542 427.655 C 451.603 427.294, 451.287 427.585, 451.635 428.490 C 451.928 429.254, 451.230 430.464, 450.084 431.180 C 448.938 431.896, 448 432.900, 448 433.412 C 448 433.924, 447.284 435.134, 446.408 436.102 C 444.926 437.739, 444.978 437.822, 447.158 437.297 C 451.805 436.177, 459.846 426.643, 458.640 423.682 C 458.288 422.818, 458.137 422.836, 458.079 423.750 M 112.470 424.861 C 112.272 425.060, 113.363 426.276, 114.894 427.564 C 122.251 433.755, 150.969 435.777, 169.500 431.409 C 171.150 431.020, 172.725 430.405, 173 430.043 C 173.275 429.681, 174.613 428.623, 175.973 427.692 L 178.445 426 175.973 425.876 C 167.203 425.437, 112.761 424.567, 112.470 424.861 M 338.500 428.116 C 329.700 428.567, 316.966 429.222, 310.201 429.572 C 296.264 430.292, 294.893 431.478, 304.873 434.183 C 315.867 437.162, 329.135 438.284, 346.779 437.725 C 368.980 437.022, 385 433.800, 385 430.038 C 385 426.865, 372.764 426.360, 338.500 428.116 M 54.658 433.449 C 54.286 434.418, 54.582 434.714, 55.551 434.342 C 57.133 433.735, 57.545 432, 56.107 432 C 55.616 432, 54.964 432.652, 54.658 433.449 M 106 438.692 C 106 439.241, 106.900 440.505, 108 441.500 C 109.100 442.495, 110 443.084, 110 442.808 C 110 442.532, 109.100 441.268, 108 440 C 106.900 438.732, 106 438.143, 106 438.692 M 42.015 474.250 C 42.034 479.402, 43.490 482.293, 44.934 480.047 C 45.763 478.759, 45.546 474.851, 44.445 471.250 C 43.567 468.379, 42.001 470.312, 42.015 474.250 M 479.336 485 C 479.336 489.125, 479.513 490.813, 479.728 488.750 C 479.944 486.688, 479.944 483.313, 479.728 481.250 C 479.513 479.188, 479.336 480.875, 479.336 485 M 45.764 489.173 C 44.876 491.487, 46.101 496, 47.617 496 C 49.388 496, 49.416 491.951, 47.661 489.551 C 46.559 488.045, 46.223 487.978, 45.764 489.173 M 228.750 492.689 C 226.012 493.405, 226.691 494.688, 230.175 495.385 C 235.116 496.373, 246 494.982, 246 493.362 C 246 492.320, 244.180 492.027, 238.250 492.116 C 233.988 492.180, 229.713 492.438, 228.750 492.689 M 157.500 494.006 C 137.340 494.736, 127 495.747, 127 496.986 C 127 498.734, 139.100 499.068, 164 498.009 C 200.292 496.465, 210.546 495.687, 210.252 494.500 C 209.950 493.281, 184.159 493.039, 157.500 494.006 M 342.010 494.824 C 336.863 496.398, 342.510 497.273, 363.324 498.129 C 374.925 498.606, 390.215 499.672, 397.303 500.498 C 411.722 502.179, 427 502.479, 427 501.083 C 427 499.478, 417.100 497.962, 396.510 496.413 C 372.064 494.574, 345.375 493.796, 342.010 494.824 M 465.011 498.254 C 459.585 509.796, 449.610 516.005, 432.315 518.603 C 419.289 520.560, 417.466 521.046, 419.155 522.117 C 421.413 523.548, 435.309 523.096, 441.068 521.405 C 454.174 517.555, 465.281 508.682, 467.888 499.979 C 469.770 493.697, 467.728 492.472, 465.011 498.254 M 73.754 499.085 C 64.691 500.044, 54.418 502.485, 48.581 505.067 C 43.493 507.318, 39.535 511.345, 40.342 513.449 C 41.170 515.607, 42.743 515.385, 43.499 513.003 C 45.064 508.072, 59.145 503.607, 77.168 502.327 C 86.629 501.656, 89.532 500.678, 87 499.015 C 85.330 497.919, 84.750 497.922, 73.754 499.085 M 24 517.561 C 24 518.268, 26.367 522.280, 27.500 523.494 C 31.936 528.248, 44.811 533.130, 56.500 534.491 C 62.873 535.233, 77.494 536.001, 73.500 535.384 C 41.800 530.489, 35.490 528.585, 28.806 521.902 C 26.163 519.258, 24 517.305, 24 517.561 M 401.250 522.644 C 398.757 523.686, 400.078 525.119, 403.250 524.813 C 405.038 524.641, 406.500 524.050, 406.500 523.500 C 406.500 522.381, 403.174 521.839, 401.250 522.644 M 441.250 531.689 C 442.212 531.941, 443.788 531.941, 444.750 531.689 C 445.712 531.438, 444.925 531.232, 443 531.232 C 441.075 531.232, 440.288 531.438, 441.250 531.689 M 429.250 532.689 C 430.212 532.941, 431.788 532.941, 432.750 532.689 C 433.712 532.438, 432.925 532.232, 431 532.232 C 429.075 532.232, 428.288 532.438, 429.250 532.689 M 420.264 533.718 C 421.784 533.947, 424.034 533.941, 425.264 533.704 C 426.494 533.467, 425.250 533.279, 422.500 533.286 C 419.750 533.294, 418.744 533.488, 420.264 533.718 M 406 535 L 401.500 535.700 406.500 535.750 C 409.250 535.778, 412.625 535.440, 414 535 C 416.418 534.226, 416.401 534.201, 413.500 534.250 C 411.850 534.278, 408.475 534.615, 406 535 M 135.768 539.725 C 137.565 539.947, 140.265 539.943, 141.768 539.715 C 143.271 539.486, 141.800 539.304, 138.500 539.310 C 135.200 539.315, 133.971 539.502, 135.768 539.725 M 346.280 539.736 C 348.909 539.943, 352.959 539.940, 355.280 539.731 C 357.601 539.521, 355.450 539.352, 350.500 539.355 C 345.550 539.358, 343.651 539.530, 346.280 539.736 M 202.269 541.693 C 203.242 541.947, 204.592 541.930, 205.269 541.656 C 205.946 541.382, 205.150 541.175, 203.500 541.195 C 201.850 541.215, 201.296 541.439, 202.269 541.693" stroke="none" fill="#340b0a" fill-rule="evenodd"/><path d="M 206.500 14.035 C 187.250 14.498, 164.300 15.354, 155.500 15.936 C 146.700 16.519, 131.924 17.433, 122.665 17.966 C 113.406 18.500, 101.706 19.618, 96.665 20.452 C 91.624 21.286, 80.525 22.660, 72 23.505 C 48.832 25.804, 36.612 28.614, 29.485 33.285 C 22.924 37.585, 21.963 41.036, 21.084 63.467 C 20.652 74.485, 20.478 100.825, 20.697 122 C 21.395 189.305, 21.508 247.144, 21.198 378.500 C 20.856 523.774, 20.300 513.395, 28.882 521.977 C 32.416 525.512, 35.242 527.242, 40.056 528.821 C 54.981 533.714, 82.050 536.613, 134.500 538.938 C 147.700 539.523, 163.119 540.241, 168.763 540.533 C 194.483 541.865, 350.629 539.881, 371.500 537.957 C 377.550 537.399, 387.450 536.554, 393.500 536.080 C 403.639 535.285, 421.487 533.446, 443.259 530.954 C 455.846 529.513, 465.091 525.839, 469.911 520.364 C 472.034 517.952, 474.012 514.971, 474.306 513.739 C 474.601 512.508, 475.552 508.668, 476.420 505.206 C 479.490 492.958, 480.245 470.528, 480.501 384 C 480.640 336.975, 481.279 277.575, 481.921 252 C 483.982 169.888, 484.121 153.440, 483.186 101.684 C 482.546 66.268, 481.924 50.524, 481.134 49.734 C 480.510 49.110, 480 47.340, 480 45.800 C 480 44.260, 479.550 43, 479 43 C 478.450 43, 478 42.530, 478 41.956 C 478 39.841, 473.342 36.023, 467.761 33.564 C 462.674 31.322, 442.657 26.515, 424 23.054 C 420.425 22.391, 415.475 21.446, 413 20.954 C 406.372 19.637, 381.979 17.217, 352.500 14.951 C 334.414 13.562, 248.577 13.023, 206.500 14.035 M 175.231 25.725 C 173.433 25.947, 172.222 26.550, 172.540 27.065 C 172.879 27.614, 186.508 28, 205.559 28 C 233.729 28, 238 27.803, 238 26.500 C 238 25.197, 234.099 25.021, 208.250 25.160 C 191.887 25.248, 177.029 25.502, 175.231 25.725 M 151.250 26.662 C 148.522 27.763, 150.241 29, 154.500 29 C 157.833 29, 159 28.611, 159 27.500 C 159 26.014, 154.155 25.490, 151.250 26.662 M 118 27.655 C 116.075 27.840, 105.950 28.687, 95.500 29.538 C 70.093 31.607, 60.578 32.794, 52.282 34.927 C 35.511 39.241, 41.722 40.315, 64 36.954 C 84.810 33.813, 98.925 32.250, 117.898 30.984 C 135.717 29.796, 138 29.445, 138 27.893 C 138 27.055, 125.777 26.910, 118 27.655 M 359.750 27.689 C 358.788 27.941, 358 28.523, 358 28.984 C 358 29.921, 367.106 30.654, 390 31.557 C 405.798 32.180, 418.714 33.928, 440.998 38.459 C 454.651 41.235, 458 41.533, 458 39.975 C 458 35.453, 402.260 26.869, 374.500 27.116 C 367.350 27.180, 360.712 27.438, 359.750 27.689 M 28.952 49.625 C 27.852 52.519, 29.701 61.010, 31.500 61.325 C 32.073 61.425, 32.604 58.403, 32.743 54.250 C 32.942 48.327, 32.709 47, 31.468 47 C 30.634 47, 29.501 48.181, 28.952 49.625 M 469.561 56.395 C 466.783 65.500, 466.503 67.575, 467.931 68.457 C 469.290 69.297, 469.989 67.738, 472.091 59.180 C 474.209 50.554, 474.430 48, 473.061 48 C 472.544 48, 470.969 51.778, 469.561 56.395 M 95.086 64 C 95.116 69.225, 95.527 74.400, 96 75.500 C 96.559 76.801, 96.879 74.006, 96.914 67.500 C 96.945 62, 96.533 56.825, 96 56 C 95.339 54.977, 95.048 57.519, 95.086 64 M 111.413 63.500 C 110.348 67.151, 110.194 147.521, 111.250 148.581 C 111.662 148.995, 112.320 149.014, 112.710 148.623 C 113.811 147.522, 114.289 69.060, 113.223 64.500 L 112.288 60.500 111.413 63.500 M 31.521 104 C 32.107 133.125, 32.463 138, 34.001 138 C 35.805 138, 36.102 133.490, 35.513 115 C 34.826 93.449, 33.449 78.524, 31.924 76.090 C 31.256 75.025, 31.123 84.236, 31.521 104 M 468.499 78.470 C 467.171 83.243, 467.285 141.259, 468.623 141.706 C 469.240 141.913, 470.022 141.051, 470.359 139.791 C 471.209 136.617, 470.929 82.193, 470.044 78.500 L 469.324 75.500 468.499 78.470 M 95.667 81.667 C 94.620 82.714, 94.888 87, 96 87 C 96.550 87, 97 85.650, 97 84 C 97 80.893, 96.796 80.537, 95.667 81.667 M 253.070 100.591 C 247.828 102.001, 243.551 103.527, 215.500 113.997 C 176.794 128.444, 166.116 132.370, 152 137.344 C 121.179 148.206, 98.585 158.292, 89.317 165.325 C 82.637 170.395, 79.465 177.837, 81.607 183.418 C 82.653 186.143, 84 185.146, 84 181.648 C 84 169.370, 107.041 156.502, 164.500 136.690 C 170 134.793, 182.375 130.252, 192 126.599 C 220.841 115.651, 221.979 115.225, 236.137 110.060 C 243.638 107.324, 251.852 104.562, 254.392 103.923 C 261.046 102.247, 269.548 103.187, 276.096 106.321 C 282.848 109.553, 283.390 109.598, 282.678 106.877 C 282.142 104.827, 282.355 104.775, 288.811 105.355 C 292.490 105.685, 303.150 106.222, 312.500 106.547 C 321.850 106.873, 331.830 107.583, 334.677 108.125 C 340.621 109.258, 347.169 113.589, 350.030 118.280 C 352.941 123.055, 356.558 134.635, 360.405 151.500 C 362.286 159.750, 365.932 173.700, 368.506 182.500 C 375.312 205.770, 386 243.086, 386 243.577 C 386 243.810, 371.666 244, 354.146 244 L 322.291 244 320.160 236.750 C 318.987 232.762, 315.989 220.950, 313.497 210.500 C 311.005 200.050, 308.348 189.192, 307.592 186.370 C 306.232 181.295, 306.253 181.178, 309.537 175.370 C 316.276 163.450, 321.851 160.607, 335.512 162.122 C 339.356 162.548, 344.675 162.920, 347.333 162.949 C 354.370 163.023, 352.857 160.768, 344.925 159.358 C 325.137 155.841, 313.793 159.654, 307.519 171.933 L 305.185 176.500 304.438 173.500 C 304.027 171.850, 301.804 163.397, 299.498 154.715 C 297.192 146.033, 295.574 138.770, 295.903 138.575 C 296.231 138.380, 300.325 137.043, 305 135.603 C 318.103 131.568, 325 128.666, 325 127.188 C 325 125.386, 321.498 126.151, 306.784 131.166 C 295.529 135.003, 293.004 135.282, 292.997 132.691 C 292.995 132.036, 291.680 128.800, 290.074 125.500 C 287.821 120.871, 287.138 120.071, 287.087 122 C 287.051 123.375, 287.692 126.709, 288.511 129.409 C 289.330 132.109, 290 134.822, 290 135.438 C 290 136.054, 286.212 137.620, 281.583 138.919 C 272.423 141.488, 270.176 142.509, 271.270 143.604 C 271.918 144.251, 286.798 141.782, 290.262 140.453 C 291.737 139.887, 293.802 146.111, 300.469 171.228 L 303.051 180.956 300.167 186.728 C 293.665 199.739, 289.427 213.299, 293.802 207.091 C 294.736 205.767, 297.389 200.606, 299.698 195.624 C 302.071 190.503, 304.112 187.203, 304.393 188.032 C 304.666 188.840, 306.699 196.700, 308.909 205.500 C 311.119 214.300, 314.251 226.531, 315.867 232.680 C 317.483 238.830, 318.550 244.117, 318.236 244.430 C 317.923 244.744, 316.617 245, 315.333 245 C 314.050 245, 313 245.450, 313 246 C 313 246.550, 314.115 247, 315.477 247 C 318.607 247, 320.213 249.584, 322.467 258.250 C 323.432 261.962, 324.636 265, 325.142 265 C 327.025 265, 327.186 261.773, 325.616 255.522 C 324.727 251.984, 324 248.844, 324 248.544 C 324 248.245, 338.140 248, 355.422 248 L 386.845 248 387.875 251.250 C 389.771 257.230, 392.907 271.406, 394.442 280.931 C 395.980 290.480, 396.944 292.770, 398.913 291.554 C 400.799 290.388, 400.018 280.888, 397.127 269.821 C 394.348 259.185, 394.344 259.123, 396.135 254.404 C 397.124 251.799, 398.286 249.336, 398.717 248.931 C 399.827 247.889, 444 246.851, 444 247.868 C 444 248.951, 432.676 279.564, 430.820 283.500 C 425.268 295.268, 419.354 299, 406.257 299 C 402.815 299, 400 299.420, 400 299.933 C 400 302.930, 414.914 302.953, 421.857 299.966 C 430.153 296.397, 435.408 289.226, 440.962 273.895 C 442.037 270.928, 444.226 264.919, 445.825 260.541 L 448.733 252.583 450.366 255.742 C 452.341 259.560, 452.622 274.408, 450.801 278.685 C 449.978 280.618, 449.670 287.666, 449.819 301.180 C 449.960 313.939, 449.671 321.085, 448.998 321.501 C 448.426 321.854, 446.551 320.959, 444.831 319.511 C 440.170 315.589, 431.185 311.344, 421.297 308.392 C 411.565 305.487, 397.418 302.682, 395.642 303.307 C 393.498 304.061, 413.366 312, 417.397 312 C 418.200 312, 419.452 312.563, 420.179 313.250 C 420.905 313.938, 422.063 314.545, 422.750 314.600 C 426.663 314.913, 427.066 315.084, 426.405 316.155 C 425.989 316.827, 426.128 317.039, 426.738 316.662 C 428.616 315.501, 439.246 321.026, 443.568 325.410 C 450.655 332.598, 451.541 335.042, 451.218 346.500 C 450.703 364.798, 450.675 371.393, 451.057 384.639 L 451.437 397.778 448.219 402.955 C 446.448 405.803, 445 408.841, 445 409.706 C 445 412.579, 438.813 416.075, 429 418.749 C 421.205 420.872, 418.920 421.023, 386 421.573 C 369.775 421.844, 351.100 422.517, 344.500 423.068 C 337.900 423.619, 312.475 424.326, 288 424.638 L 243.500 425.207 238 422.353 C 228.123 417.229, 225.488 408.108, 227.895 387.373 C 228.881 378.878, 233.775 353.203, 234.611 352.135 C 234.768 351.934, 243.121 348.479, 253.174 344.457 C 263.227 340.435, 271.613 336.662, 271.809 336.072 C 272.426 334.222, 266.328 334.892, 259.773 337.394 C 256.323 338.711, 249.572 341.636, 244.772 343.894 C 239.971 346.152, 235.840 348, 235.591 348 C 235.343 348, 235.558 346.540, 236.070 344.757 C 237.187 340.861, 237.297 336.377, 236.250 337.398 C 235.838 337.801, 234.600 340.627, 233.500 343.680 C 231.382 349.556, 231.411 349.538, 218.500 353.399 C 217.950 353.563, 216.825 353.986, 216 354.338 C 212.251 355.939, 201.681 359.350, 193 361.760 C 179.499 365.508, 165.128 365.467, 152.617 361.645 C 147.732 360.153, 143.506 359.161, 143.226 359.441 C 142.267 360.399, 147.498 363.953, 153 366.081 C 165.157 370.784, 181.677 369.484, 206.984 361.833 C 214.418 359.586, 221.254 357.708, 222.177 357.659 C 223.099 357.611, 223.678 357.288, 223.464 356.942 C 223.250 356.596, 224.669 355.823, 226.618 355.225 C 229.778 354.255, 230.087 354.320, 229.475 355.819 C 227.166 361.472, 223.878 381.989, 223.437 393.500 C 223.163 400.650, 222.776 408.473, 222.577 410.885 C 222.378 413.297, 222.515 414.785, 222.882 414.192 C 223.251 413.595, 224.429 414.984, 225.524 417.307 L 227.500 421.500 166.500 420.893 C 103.422 420.266, 102.116 420.177, 94 415.956 C 89.059 413.386, 84.759 409.070, 85.421 407.345 C 85.731 406.536, 85.540 406.166, 84.989 406.507 C 84.099 407.057, 83.568 405.735, 83.882 403.750 C 83.947 403.337, 83.600 403, 83.111 403 C 82.623 403, 81.909 401.328, 81.526 399.285 C 81.142 397.241, 80.192 394.338, 79.414 392.834 C 77.582 389.291, 77.616 387, 79.500 387 C 81.217 387, 81.601 382.489, 79.969 381.481 C 79.359 381.104, 79.018 377.105, 79.134 371.672 C 79.241 366.627, 79.236 341.462, 79.123 315.750 C 78.944 274.814, 78.730 269, 77.408 269 C 75.256 269, 73 275.083, 73 280.886 C 73 286.464, 73.778 289.255, 75.105 288.435 C 75.597 288.131, 76 288.584, 76 289.441 C 76 290.298, 75.566 291, 75.035 291 C 73.763 291, 72.535 288.602, 69.507 280.207 C 65.368 268.734, 66.444 259.828, 72.730 253.543 C 75.146 251.127, 75.822 251, 86.291 251 L 97.310 251 91.405 254.847 C 88.157 256.963, 84.600 259.732, 83.500 261 L 81.500 263.305 84.770 262.674 C 86.569 262.326, 91.405 260.487, 95.518 258.587 L 102.995 255.132 103.580 257.816 C 103.902 259.292, 104.533 261.676, 104.983 263.113 L 105.801 265.727 98.746 266.318 C 86.613 267.335, 88.186 269.579, 101.500 270.249 L 106.500 270.500 108.652 276.928 C 110.661 282.929, 110.800 285.253, 110.744 311.928 C 110.711 327.643, 111.029 342.019, 111.449 343.875 C 112.057 346.557, 111.935 347.107, 110.857 346.551 C 110.111 346.166, 110.374 346.560, 111.441 347.426 C 115.425 350.656, 115.325 351.419, 115.011 320.250 C 114.910 310.212, 115.075 302, 115.377 302 C 115.679 302, 117.757 307.738, 119.995 314.750 C 127.324 337.717, 134.166 354, 136.487 354 C 138.596 354, 138.413 352.569, 135.078 342.938 C 116.590 289.555, 115.525 285.994, 115.511 277.500 L 115.500 270.500 134.500 269.287 C 144.950 268.620, 166.485 267.650, 182.355 267.132 C 200.119 266.552, 211.618 265.782, 212.272 265.128 C 214.335 263.065, 209.945 262.762, 187.219 263.397 C 174.724 263.746, 153.363 264.300, 139.750 264.628 L 115 265.224 115.042 255.862 L 115.085 246.500 118.619 244.245 C 127.623 238.501, 133 237.971, 171 239.088 C 180.336 239.362, 186.197 239.060, 190 238.109 C 197.110 236.331, 208.105 231.978, 207.590 231.146 C 207.371 230.791, 208.836 230.449, 210.845 230.387 C 212.855 230.325, 217.039 229.929, 220.142 229.508 C 225.517 228.779, 225.817 228.855, 226.503 231.121 C 227.993 236.049, 230.276 240, 231.633 240 C 232.994 240, 232.940 238.652, 231.339 232.749 C 230.927 231.229, 231.218 231.132, 233.545 232.017 C 235.019 232.577, 238.762 234.510, 241.862 236.312 C 250.024 241.055, 256.674 243.686, 263.500 244.875 C 271.199 246.215, 282.290 246.557, 283.990 245.506 C 284.866 244.965, 285.069 245.079, 284.595 245.845 C 283.567 247.509, 285.531 247.270, 286.951 245.558 C 287.944 244.362, 287.498 243.954, 284.324 243.158 C 282.221 242.631, 276.459 241.919, 271.519 241.576 C 259.610 240.750, 257.096 239.974, 246.500 233.861 C 241.550 231.005, 235.476 227.888, 233.002 226.935 C 228.937 225.369, 228.289 224.647, 226.266 219.421 C 225.034 216.242, 224.159 213.508, 224.320 213.346 C 224.482 213.185, 230.326 212.747, 237.307 212.374 C 246.949 211.858, 250 211.371, 250 210.348 C 250 209.606, 249.887 208.945, 249.750 208.878 C 249.613 208.811, 243.217 208.473, 235.538 208.128 L 221.577 207.500 220.145 203.500 C 215.185 189.641, 208 175.667, 208 179.879 C 208 181.365, 213.217 196.200, 215.917 202.392 C 217.090 205.082, 217.796 207.538, 217.484 207.849 C 217.173 208.160, 208.274 208.711, 197.709 209.074 C 178.336 209.738, 173.166 210.669, 167.742 214.468 C 164.992 216.394, 166.071 216.393, 177 214.459 C 188.811 212.369, 201.516 211.640, 211.546 212.475 L 220.050 213.184 221.554 216.783 C 224.763 224.463, 224.673 225, 220.185 225 C 215.064 225, 206 227.065, 206 228.231 C 206 228.719, 205.634 228.892, 205.187 228.615 C 204.739 228.339, 201.252 229.260, 197.437 230.661 C 188.541 233.930, 175.218 234.588, 154.084 232.802 L 138.668 231.500 148.807 226.199 C 154.383 223.283, 159.211 220.467, 159.536 219.942 C 162.103 215.788, 146.864 221.548, 134.701 229.328 C 131.567 231.333, 125.903 234.534, 122.116 236.442 L 115.229 239.910 114.570 231.205 C 113.155 212.505, 111.497 212.554, 110.491 231.325 C 109.858 243.153, 109.551 244.800, 107.771 245.911 C 105.322 247.440, 104.683 246.767, 103.109 241 C 97.905 221.928, 88.748 198.695, 85.310 195.842 C 83.466 194.312, 84.058 196.828, 88.763 210.500 C 96.125 231.895, 101 246.416, 100.999 246.946 C 100.998 247.251, 87.342 247.500, 70.651 247.500 C 47.937 247.500, 39.929 247.813, 38.809 248.743 C 37.490 249.838, 37.234 246.994, 36.648 224.743 C 35.117 166.608, 34.647 155.100, 33.824 155.609 C 32.908 156.175, 33.521 266.593, 34.598 295.239 C 34.997 305.828, 35.590 311.753, 36.214 311.368 C 36.860 310.968, 36.862 311.403, 36.220 312.629 C 35.659 313.702, 35.033 330.504, 34.755 352 C 34.297 387.273, 35.008 407.646, 36.742 408.936 C 37.159 409.246, 37.603 411.421, 37.728 413.769 C 37.854 416.117, 39.477 421.292, 41.335 425.269 C 47.583 438.646, 55.963 443.428, 81 447.906 C 91.218 449.733, 98.375 449.973, 150.594 450.237 C 193.399 450.453, 202.982 450.257, 204.333 449.137 C 206.995 446.930, 205.294 446, 198.595 446 C 188.206 446, 174 444.758, 174 443.850 C 174 443.383, 175.357 443, 177.016 443 C 180.494 443, 188 440.838, 188 439.836 C 188 439.464, 189.300 438.873, 190.888 438.525 C 194.266 437.783, 201 431.426, 201 428.979 C 201 427.521, 202.731 427.197, 213.750 426.593 C 222.262 426.126, 226.952 425.447, 227.861 424.550 C 229.003 423.423, 230.214 423.730, 235.361 426.449 C 238.738 428.232, 242.007 429.517, 242.627 429.303 C 244.390 428.696, 245.047 431.716, 243.441 433.049 C 241.216 434.896, 241.578 442.308, 244 444.500 C 245.100 445.495, 246 446.690, 246 447.155 C 246 447.620, 240.713 448.045, 234.250 448.100 C 227.787 448.155, 221.375 448.543, 220 448.962 C 214.570 450.618, 221.665 451.500, 240 451.446 C 423.799 450.906, 420.062 450.985, 434.902 447.313 C 454.519 442.459, 465.143 430.913, 465.143 414.447 C 465.143 411.245, 465.786 407.381, 466.571 405.862 C 468.215 402.683, 468.475 396.411, 467 395.500 C 466.450 395.160, 466.007 394.346, 466.015 393.691 C 466.026 392.879, 466.300 392.925, 466.877 393.835 C 467.512 394.837, 467.903 394.587, 468.448 392.835 C 470.047 387.690, 472.135 160.802, 470.598 159.265 C 470.269 158.936, 469.821 158.854, 469.602 159.083 C 469.384 159.312, 468.875 178.063, 468.471 200.750 L 467.736 242 459.761 242 C 452.555 242, 451.856 241.831, 452.513 240.250 C 456.919 229.648, 457.191 219.783, 453.295 211.964 C 450.108 205.570, 436.241 191.271, 427.450 185.315 C 409.166 172.928, 394.978 166.969, 378.555 164.778 L 368.676 163.461 363.369 144.980 C 356.476 120.978, 355.467 118.462, 350.634 113.219 C 342.837 104.760, 333.180 102.028, 311 102.006 C 305.775 102.001, 295.200 101.327, 287.500 100.509 C 270.194 98.670, 260.127 98.694, 253.070 100.591 M 251.915 148.051 C 247.229 149.161, 233.458 155.449, 232.572 156.883 C 231.600 158.456, 231.608 158.455, 245.489 153.847 C 253.257 151.269, 258 149.183, 258 148.347 C 258 146.851, 257.150 146.810, 251.915 148.051 M 198 160.802 C 198 161.743, 208.146 166.187, 208.801 165.532 C 209.807 164.526, 207.882 161.906, 205.461 160.985 C 202.337 159.798, 198 159.691, 198 160.802 M 159 164.582 C 153.775 165.301, 142.444 166.387, 133.821 166.994 C 125.197 167.602, 116.779 168.490, 115.112 168.968 C 112.540 169.705, 111.987 169.536, 111.450 167.843 C 110.911 166.143, 109.995 165.499, 110.252 167 C 110.299 167.275, 109.796 168.512, 109.134 169.750 C 108.362 171.192, 108.301 172, 108.965 172 C 109.586 172, 110 174.978, 110 179.441 C 110 186.074, 111.047 189.287, 112.677 187.657 C 112.976 187.357, 113.169 183.712, 113.107 179.556 C 113.019 173.673, 113.305 172, 114.401 172 C 115.175 172, 126.764 171.084, 140.154 169.965 C 164.862 167.899, 174.043 166.370, 174.766 164.202 C 175.258 162.727, 171.900 162.808, 159 164.582 M 370 168.049 C 370 168.744, 371.324 174.079, 372.942 179.906 C 377.632 196.793, 386.051 227.803, 388.252 236.302 L 390.274 244.104 393.825 243.802 L 397.377 243.500 401.538 231 C 403.826 224.125, 407.331 214.900, 409.328 210.500 C 416.049 195.689, 416.465 188.446, 410.976 181.787 C 406.752 176.663, 399.484 173.474, 385.217 170.485 C 378.462 169.070, 372.274 167.659, 371.467 167.349 C 370.655 167.037, 370 167.350, 370 168.049 M 417.653 190.218 C 418.123 197.129, 417.415 199.470, 406.626 226.700 C 403.532 234.511, 400.999 241.486, 400.998 242.200 C 400.997 243.243, 405.524 243.401, 423.917 243 C 436.523 242.725, 447.041 242.275, 447.289 242 C 449.065 240.034, 452.270 230.532, 452.712 225.923 C 453.422 218.518, 450.884 212.836, 443.294 204.838 C 437.085 198.297, 426.247 189.258, 420.655 185.959 L 417.225 183.935 417.653 190.218 M 356.857 207.153 C 352.839 214.804, 347 228.184, 347 229.740 C 347 232.022, 349.731 229.451, 351.961 225.067 C 354.409 220.255, 360.159 203.825, 359.592 203.259 C 359.343 203.010, 358.112 204.762, 356.857 207.153 M 295.008 243.948 C 292.319 245.694, 295.389 247.133, 301.107 246.807 C 305.098 246.580, 306.500 246.110, 306.500 245 C 306.500 243.215, 297.419 242.384, 295.008 243.948 M 392 248.918 C 392 249.423, 392.288 250.586, 392.639 251.502 C 393.149 252.831, 393.449 252.898, 394.124 251.834 C 395.438 249.761, 395.151 248, 393.500 248 C 392.675 248, 392 248.413, 392 248.918 M 108.173 250.883 C 107.079 251.567, 107.071 252.486, 108.129 256.107 C 109.290 260.081, 109.447 260.238, 109.773 257.750 C 110.388 253.051, 109.665 249.949, 108.173 250.883 M 38.355 263.500 C 38.352 268.450, 38.521 270.601, 38.731 268.280 C 38.940 265.959, 38.943 261.909, 38.736 259.280 C 38.530 256.651, 38.358 258.550, 38.355 263.500 M 328.366 277.250 C 330.936 302.217, 330.345 306.707, 323.599 313.454 C 320.506 316.547, 316.999 318.626, 310.928 320.967 C 306.311 322.748, 301.851 324.338, 301.017 324.501 C 300.183 324.664, 296.826 325.739, 293.558 326.890 C 287.783 328.925, 285.170 330.504, 286.077 331.411 C 286.864 332.197, 302.069 329.187, 303.560 327.951 C 304.352 327.293, 305 327.029, 305 327.363 C 305 327.697, 307.363 327.026, 310.250 325.872 C 313.137 324.718, 318.260 323.184, 321.634 322.463 C 325.008 321.743, 333.783 319.053, 341.134 316.486 C 348.485 313.919, 362.150 309.196, 371.500 305.990 C 382.953 302.064, 388.605 299.647, 388.823 298.581 C 389.382 295.848, 384.321 296.732, 369 302.042 C 340.768 311.828, 328.579 316, 328.224 316 C 328.026 316, 328.720 314.762, 329.766 313.250 C 335.917 304.359, 336.614 292.135, 331.957 274.841 C 331.305 272.417, 330.332 271, 329.323 271 C 327.958 271, 327.817 271.919, 328.366 277.250 M 346.036 280.374 C 348.363 282.557, 368.200 288.200, 369.384 287.016 C 370.062 286.338, 369.754 285.537, 368.446 284.572 C 366.191 282.909, 351.372 279, 347.322 279 C 344.945 279, 344.771 279.187, 346.036 280.374 M 183.655 290.500 C 182.390 298.795, 180.863 333.512, 181.516 339.140 C 182.194 344.977, 183.323 347.205, 184.306 344.644 C 185.360 341.899, 186.199 291.497, 185.233 289 C 184.311 286.617, 184.237 286.688, 183.655 290.500 M 304.500 290.591 C 302.300 291.388, 299.150 292.646, 297.500 293.387 C 283.101 299.851, 280 301.414, 280 302.207 C 280 302.708, 279.581 302.859, 279.069 302.543 C 278.557 302.226, 277.856 302.425, 277.510 302.984 C 276.461 304.681, 278.369 304.184, 290.892 299.500 C 297.508 297.025, 303.407 295, 304.001 295 C 305.850 295, 313 291.011, 313 289.980 C 313 288.607, 309.224 288.879, 304.500 290.591 M 238 295.442 C 238 298.015, 243.525 311.992, 244.424 311.693 C 247.554 310.650, 245.307 301.627, 240.856 297.362 C 239.285 295.857, 238 294.993, 238 295.442 M 392.667 295.667 C 391.399 296.934, 392.008 298, 394 298 C 395.111 298, 396 297.333, 396 296.500 C 396 294.978, 393.885 294.449, 392.667 295.667 M 205.595 325.500 C 203.569 326.875, 201.455 328, 200.897 328 C 200.339 328, 200.157 328.445, 200.493 328.989 C 200.829 329.532, 200.518 329.756, 199.802 329.487 C 198.062 328.831, 191.736 332.763, 192.511 334.018 C 192.903 334.652, 193.906 334.586, 195.311 333.834 C 196.515 333.189, 197.500 332.770, 197.500 332.901 C 197.500 333.175, 200.720 331.982, 206.463 329.581 C 210.626 327.840, 214 325.273, 214 323.845 C 214 322.125, 209.165 323.077, 205.595 325.500 M 341 325.912 C 341 328.442, 353.410 333.144, 368.988 336.517 C 374.770 337.768, 385.465 340.076, 392.755 341.646 L 406.010 344.500 407.147 347.946 C 407.948 350.374, 408.035 355.398, 407.439 364.946 C 406.043 387.309, 406.214 394.410, 408.155 394.788 C 409.418 395.034, 410.070 393.900, 410.905 390.006 C 412.308 383.467, 412.355 348.532, 410.965 345.934 C 410.044 344.213, 410.275 344, 413.061 344 C 416.710 344, 427.007 341.174, 426.985 340.179 C 426.976 339.806, 426.550 338.837, 426.038 338.027 C 425.222 336.737, 424.300 336.768, 418.639 338.277 C 409.146 340.806, 405.816 340.499, 383.643 335.047 C 372.565 332.322, 359.225 329.156, 354 328.011 C 348.775 326.866, 343.712 325.690, 342.750 325.397 C 341.788 325.105, 341 325.336, 341 325.912 M 306.518 350.099 C 305.557 352.592, 306.380 365.500, 307.500 365.500 C 308.834 365.500, 309.358 352.460, 308.113 350.243 C 307.238 348.685, 307.069 348.669, 306.518 350.099 M 110.625 379.532 C 109.915 385.579, 110.292 387, 112.607 387 C 113.796 387, 114.036 385.760, 113.798 380.829 C 113.414 372.875, 111.500 372.093, 110.625 379.532 M 74 379.059 C 74 380.191, 74.430 380.852, 74.956 380.527 C 75.482 380.202, 75.659 379.275, 75.349 378.468 C 74.556 376.401, 74 376.644, 74 379.059 M 181.667 386.667 C 180.125 388.208, 181.083 390.127, 183.240 389.820 C 186.071 389.416, 186.965 386, 184.240 386 C 183.191 386, 182.033 386.300, 181.667 386.667 M 141.500 396.692 C 138.750 397.555, 135.375 398.690, 134 399.215 C 132.625 399.740, 127.937 401.369, 123.583 402.835 C 114.561 405.872, 111.918 408.661, 119.131 407.532 C 121.534 407.156, 127.224 405.714, 131.776 404.327 C 136.328 402.941, 140.739 402.070, 141.578 402.392 C 142.417 402.714, 142.861 402.584, 142.563 402.103 C 142.266 401.622, 144.577 400.389, 147.699 399.364 C 150.821 398.339, 153.554 396.938, 153.771 396.250 C 154.327 394.494, 147.753 394.730, 141.500 396.692 M 462 398.108 C 462 399.084, 462.526 400.207, 463.170 400.605 C 463.938 401.080, 464.137 400.798, 463.748 399.786 C 463.423 398.938, 463.586 397.814, 464.111 397.289 C 464.718 396.682, 464.508 396.333, 463.533 396.333 C 462.690 396.333, 462 397.132, 462 398.108 M 405.455 401.792 C 404.890 402.181, 404.293 404.228, 404.129 406.340 C 403.876 409.604, 404.106 410.127, 405.666 409.831 C 406.928 409.592, 407.601 408.432, 407.823 406.115 C 408.168 402.517, 407.136 400.634, 405.455 401.792 M 281.052 407.923 C 279.899 408.672, 280.115 408.991, 282.118 409.494 C 285.705 410.394, 294.500 409.688, 294.500 408.500 C 294.500 407.196, 282.936 406.700, 281.052 407.923 M 312.578 407.999 C 305.715 408.580, 304.072 410.522, 309.699 411.401 C 311.789 411.728, 328.254 412.109, 346.286 412.247 C 374.397 412.464, 379.203 412.288, 379.991 411.014 C 380.594 410.038, 380.496 409.308, 379.705 408.884 C 378.198 408.077, 320.620 407.318, 312.578 407.999 M 82 414.806 C 82 415.328, 82.675 416.315, 83.500 417 C 84.325 417.685, 85 417.933, 85 417.551 C 85 417.169, 84.325 416.182, 83.500 415.357 C 82.675 414.532, 82 414.284, 82 414.806 M 62.789 416.682 C 61.847 416.929, 58.383 419.876, 55.091 423.230 C 50.150 428.264, 49.277 429.649, 50.088 431.164 C 50.628 432.174, 51.527 433, 52.085 433 C 52.642 433, 55.889 430.304, 59.299 427.009 C 66.083 420.454, 68.610 419.713, 74.241 422.625 C 79.720 425.458, 82.773 425.958, 85.741 424.508 C 92.104 421.401, 92.798 421.748, 105.251 434.271 C 116.152 445.233, 117.169 446, 120.804 446 L 124.693 446 113.118 434.750 C 106.752 428.563, 101.309 423.250, 101.022 422.944 C 100.735 422.639, 97.634 421.357, 94.132 420.097 C 88.407 418.038, 87.311 417.933, 83.287 419.060 C 80.332 419.887, 78.589 419.971, 78.156 419.306 C 76.325 416.495, 68.549 415.168, 62.789 416.682 M 458.079 423.750 C 458.036 424.438, 457.373 425, 456.607 425 C 455.841 425, 454.937 425.722, 454.599 426.604 C 454.259 427.489, 453.338 427.960, 452.542 427.655 C 451.603 427.294, 451.287 427.585, 451.635 428.490 C 451.928 429.254, 451.230 430.464, 450.084 431.180 C 448.938 431.896, 448 432.900, 448 433.412 C 448 433.924, 447.284 435.134, 446.408 436.102 C 444.926 437.739, 444.978 437.822, 447.158 437.297 C 451.805 436.177, 459.846 426.643, 458.640 423.682 C 458.288 422.818, 458.137 422.836, 458.079 423.750 M 112.470 424.861 C 112.272 425.060, 113.363 426.276, 114.894 427.564 C 122.251 433.755, 150.969 435.777, 169.500 431.409 C 171.150 431.020, 172.725 430.405, 173 430.043 C 173.275 429.681, 174.613 428.623, 175.973 427.692 L 178.445 426 175.973 425.876 C 167.203 425.437, 112.761 424.567, 112.470 424.861 M 338.500 428.116 C 329.700 428.567, 316.966 429.222, 310.201 429.572 C 296.264 430.292, 294.893 431.478, 304.873 434.183 C 315.867 437.162, 329.135 438.284, 346.779 437.725 C 368.980 437.022, 385 433.800, 385 430.038 C 385 426.865, 372.764 426.360, 338.500 428.116 M 54.658 433.449 C 54.286 434.418, 54.582 434.714, 55.551 434.342 C 57.133 433.735, 57.545 432, 56.107 432 C 55.616 432, 54.964 432.652, 54.658 433.449 M 106 438.692 C 106 439.241, 106.900 440.505, 108 441.500 C 109.100 442.495, 110 443.084, 110 442.808 C 110 442.532, 109.100 441.268, 108 440 C 106.900 438.732, 106 438.143, 106 438.692 M 42.015 474.250 C 42.034 479.402, 43.490 482.293, 44.934 480.047 C 45.763 478.759, 45.546 474.851, 44.445 471.250 C 43.567 468.379, 42.001 470.312, 42.015 474.250 M 45.764 489.173 C 44.876 491.487, 46.101 496, 47.617 496 C 49.388 496, 49.416 491.951, 47.661 489.551 C 46.559 488.045, 46.223 487.978, 45.764 489.173 M 228.750 492.689 C 226.012 493.405, 226.691 494.688, 230.175 495.385 C 235.116 496.373, 246 494.982, 246 493.362 C 246 492.320, 244.180 492.027, 238.250 492.116 C 233.988 492.180, 229.713 492.438, 228.750 492.689 M 157.500 494.006 C 137.340 494.736, 127 495.747, 127 496.986 C 127 498.734, 139.100 499.068, 164 498.009 C 200.292 496.465, 210.546 495.687, 210.252 494.500 C 209.950 493.281, 184.159 493.039, 157.500 494.006 M 342.010 494.824 C 336.863 496.398, 342.510 497.273, 363.324 498.129 C 374.925 498.606, 390.215 499.672, 397.303 500.498 C 411.722 502.179, 427 502.479, 427 501.083 C 427 499.478, 417.100 497.962, 396.510 496.413 C 372.064 494.574, 345.375 493.796, 342.010 494.824 M 465.011 498.254 C 459.585 509.796, 449.610 516.005, 432.315 518.603 C 419.289 520.560, 417.466 521.046, 419.155 522.117 C 421.413 523.548, 435.309 523.096, 441.068 521.405 C 454.174 517.555, 465.281 508.682, 467.888 499.979 C 469.770 493.697, 467.728 492.472, 465.011 498.254 M 73.754 499.085 C 64.691 500.044, 54.418 502.485, 48.581 505.067 C 43.493 507.318, 39.535 511.345, 40.342 513.449 C 41.170 515.607, 42.743 515.385, 43.499 513.003 C 45.064 508.072, 59.145 503.607, 77.168 502.327 C 86.629 501.656, 89.532 500.678, 87 499.015 C 85.330 497.919, 84.750 497.922, 73.754 499.085 M 401.250 522.644 C 398.757 523.686, 400.078 525.119, 403.250 524.813 C 405.038 524.641, 406.500 524.050, 406.500 523.500 C 406.500 522.381, 403.174 521.839, 401.250 522.644" stroke="none" fill="#f6ddb8" fill-rule="evenodd"/></svg>