<?xml version="1.0" standalone="no"?>
<!DOCTYPE svg PUBLIC "-//W3C//DTD SVG 20010904//EN"
 "http://www.w3.org/TR/2001/REC-SVG-20010904/DTD/svg10.dtd">
<svg version="1.0" xmlns="http://www.w3.org/2000/svg"
 width="498.000000pt" height="556.000000pt" viewBox="0 0 498.000000 556.000000"
 preserveAspectRatio="xMidYMid meet">

<g transform="translate(0.000000,556.000000) scale(0.100000,-0.100000)"
fill="#000000" stroke="none">
<path d="M1750 5301 c-19 -3 -30 -9 -25 -13 14 -8 75 -10 393 -9 226 1 262 3
262 16 0 13 -39 15 -297 14 -164 -1 -314 -4 -333 -8z"/>
<path d="M1513 5293 c-28 -11 -11 -23 32 -23 33 0 45 4 45 15 0 15 -48 20 -77
8z"/>
<path d="M1180 5284 c-19 -2 -120 -11 -225 -19 -260 -21 -347 -32 -440 -56
-189 -48 -55 -51 225 -4 85 14 227 30 315 35 275 17 325 23 325 41 0 8 -120
10 -200 3z"/>
<path d="M3598 5283 c-10 -2 -18 -8 -18 -13 0 -9 44 -12 355 -29 135 -8 237
-20 350 -42 259 -49 284 -53 292 -46 14 15 -16 28 -132 57 -208 52 -749 99
-847 73z"/>
<path d="M290 5064 c-11 -29 7 -114 25 -117 6 -1 11 29 12 71 2 59 0 72 -12
72 -9 0 -20 -12 -25 -26z"/>
<path d="M4696 4996 c-28 -91 -31 -112 -17 -121 14 -8 21 8 42 93 21 86 23
112 10 112 -6 0 -21 -38 -35 -84z"/>
<path d="M950 4915 c0 -55 5 -107 10 -115 7 -10 10 17 10 85 0 55 -5 107 -10
115 -7 10 -10 -17 -10 -85z"/>
<path d="M1114 4925 c-11 -37 -12 -840 -1 -851 4 -4 10 -4 14 0 11 11 16 795
5 841 l-9 40 -9 -30z"/>
<path d="M311 4576 c0 -227 9 -380 24 -394 20 -20 25 38 20 228 -12 408 -45
530 -44 166z"/>
<path d="M4685 4775 c-13 -47 -12 -628 1 -632 6 -2 14 6 18 19 8 32 5 576 -4
613 l-7 30 -8 -30z"/>
<path d="M957 4743 c-11 -10 -8 -53 3 -53 6 0 10 14 10 30 0 31 -2 35 -13 23z"/>
<path d="M2520 4550 c-36 -10 -119 -38 -185 -63 -157 -58 -368 -136 -530 -197
-71 -27 -208 -76 -304 -110 -96 -34 -207 -74 -246 -90 -109 -43 -315 -148
-362 -183 -67 -51 -98 -125 -77 -181 11 -28 21 -17 27 26 3 23 14 53 25 67 62
85 297 204 637 324 132 47 319 115 415 151 96 37 204 78 240 91 170 64 342
125 384 136 66 17 151 7 217 -24 67 -32 73 -33 66 -7 -3 11 -2 20 1 20 4 -1
125 -7 270 -14 244 -13 265 -15 310 -38 93 -48 136 -141 202 -437 17 -79 53
-216 80 -305 26 -88 55 -186 63 -216 8 -30 36 -126 61 -212 25 -87 46 -160 46
-163 0 -3 -143 -5 -319 -5 l-318 0 -21 73 c-12 39 -42 158 -67 262 -25 105
-52 213 -59 242 -14 52 -14 52 20 110 19 32 51 74 70 93 l35 35 159 -2 c126
-2 160 1 160 11 0 9 -27 17 -82 24 -207 29 -299 -3 -362 -125 l-23 -45 -46
173 c-26 96 -47 181 -47 190 0 11 27 24 93 44 130 39 197 68 197 83 0 18 -35
10 -182 -40 -111 -38 -138 -41 -138 -16 0 21 -53 128 -61 123 -4 -3 1 -36 12
-73 10 -37 19 -72 19 -77 0 -6 -37 -21 -83 -33 -89 -25 -115 -37 -104 -48 6
-7 155 18 190 31 15 6 43 -81 102 -309 24 -97 24 -100 7 -130 -27 -47 -92
-211 -91 -232 0 -17 2 -16 17 5 9 13 36 65 59 115 24 52 44 84 47 76 3 -8 21
-80 41 -160 19 -80 50 -202 69 -272 19 -69 32 -129 28 -132 -3 -3 -18 -6 -34
-6 -15 0 -28 -4 -28 -10 0 -5 10 -10 23 -10 40 0 56 -22 78 -102 14 -50 26
-78 35 -78 18 0 18 31 -1 100 -8 30 -15 58 -15 63 0 4 141 7 314 7 l314 0 11
-32 c20 -66 43 -171 61 -279 18 -110 28 -137 49 -125 19 12 12 98 -15 206 -27
106 -26 147 2 202 14 27 14 27 121 26 60 0 135 2 168 5 33 3 50 3 37 1 -12 -3
-20 -10 -16 -15 3 -6 15 -4 30 6 16 10 42 15 74 14 28 -2 50 -3 50 -3 0 -1
-15 -46 -34 -101 -20 -58 -39 -99 -46 -97 -7 1 -9 -5 -6 -16 8 -23 -47 -156
-59 -145 -4 5 -5 3 -2 -4 8 -12 -23 -73 -36 -73 -5 0 -5 -4 -2 -10 4 -6 -1 -7
-11 -3 -11 4 -15 2 -11 -4 4 -6 -4 -18 -18 -27 -14 -9 -25 -14 -25 -11 0 3
-13 -1 -30 -10 -17 -9 -55 -15 -95 -15 -64 0 -85 -12 -43 -26 12 -3 49 -7 82
-7 109 -1 203 59 255 161 24 46 121 306 121 325 0 6 6 3 12 -8 24 -41 28 -106
13 -230 -9 -82 -12 -173 -9 -272 6 -166 0 -189 -37 -153 -37 34 -149 87 -246
116 -107 32 -221 56 -248 52 -17 -3 -14 -7 14 -22 45 -24 169 -66 195 -66 17
0 18 -2 6 -10 -12 -8 -10 -10 10 -11 14 -1 30 -3 35 -4 6 -2 18 -3 28 -4 11
-1 15 -6 11 -12 -4 -7 -1 -10 7 -7 8 3 36 -6 63 -19 38 -19 46 -27 35 -35 -10
-7 -7 -7 10 -3 17 5 22 4 16 -5 -5 -9 -4 -11 4 -6 18 12 41 -17 29 -38 -7 -12
-7 -21 1 -29 6 -6 11 -7 11 -2 0 5 7 0 15 -11 9 -12 14 -14 15 -6 0 7 -7 20
-15 28 -11 11 -15 12 -15 3 0 -7 -3 -10 -6 -6 -3 3 -3 10 0 16 10 15 34 2 42
-22 4 -12 12 -27 19 -34 13 -12 31 -156 22 -171 -14 -21 -17 -151 -7 -257 7
-85 7 -134 0 -178 -12 -65 -36 -111 -53 -100 -6 4 -8 0 -5 -8 7 -18 -9 -62
-20 -55 -5 3 -23 -8 -41 -24 -18 -17 -44 -33 -59 -36 -15 -4 -30 -11 -33 -16
-3 -5 -40 -10 -81 -11 -42 -1 -74 -5 -72 -8 2 -3 -20 -7 -49 -8 -29 -1 -198
-6 -377 -12 -179 -6 -352 -12 -385 -14 -167 -10 -678 -14 -655 -5 23 9 23 9
-5 4 -70 -12 -212 -16 -251 -5 -48 13 -109 62 -131 105 -21 40 -32 226 -13
226 9 0 10 10 6 35 -4 22 4 89 25 192 18 87 33 160 35 162 2 2 85 36 186 76
100 41 184 78 186 84 6 19 -55 12 -120 -13 -35 -13 -102 -42 -150 -65 -48 -23
-90 -41 -92 -41 -3 0 0 15 5 32 12 43 12 81 -1 73 -5 -3 -17 -30 -27 -61 l-17
-55 -70 -21 c-39 -11 -75 -24 -81 -28 -16 -12 -234 -79 -310 -95 -122 -26
-192 -18 -404 41 -48 14 -15 -21 52 -54 118 -59 285 -54 532 18 55 16 107 31
116 35 10 4 19 0 23 -11 4 -12 2 -15 -9 -10 -9 3 -15 0 -15 -10 0 -12 4 -13
21 -4 12 7 18 18 15 26 -9 23 26 34 63 18 30 -12 32 -17 26 -41 -16 -60 -26
-109 -26 -128 0 -11 -5 -38 -11 -60 -6 -22 -12 -103 -13 -180 -3 -139 2 -196
14 -177 3 6 11 -1 18 -14 l11 -25 -561 4 c-681 5 -619 4 -684 17 -33 7 -51 15
-47 22 4 7 2 8 -5 4 -15 -10 -61 20 -61 39 0 9 -6 12 -15 9 -10 -4 -15 0 -15
11 0 9 -4 14 -9 11 -4 -3 -6 6 -3 20 3 19 7 22 13 12 5 -7 9 -8 9 -3 0 6 -4
16 -9 23 -6 11 -10 10 -16 -5 -5 -10 -7 -22 -6 -26 1 -5 -3 -6 -9 -2 -7 4 -7
13 1 27 6 11 7 18 2 15 -19 -12 -33 12 -35 59 -1 27 -6 57 -11 68 -6 12 -5 26
4 42 10 20 10 27 -3 41 -17 21 -22 81 -8 103 8 12 10 13 10 1 0 -8 3 -11 6 -8
4 4 2 12 -4 19 -17 21 -25 239 -22 643 1 129 4 176 11 165 9 -12 9 -11 4 5 -4
11 -8 58 -10 103 -3 66 -1 83 9 79 7 -3 13 1 13 7 0 18 -53 18 -67 1 -25 -30
-25 -195 0 -180 6 3 10 -1 10 -9 0 -27 -18 -18 -34 17 -40 86 -49 124 -48 195
2 78 10 101 51 145 25 26 29 27 136 27 l110 0 -46 -28 c-51 -31 -92 -62 -102
-78 -5 -8 9 -11 44 -11 31 1 44 4 33 8 -15 5 -11 8 19 14 20 4 37 10 37 14 0
4 15 15 34 24 l35 16 10 -47 c5 -26 8 -49 5 -51 -2 -2 -32 -8 -66 -13 -56 -8
-105 -28 -67 -28 12 0 12 -2 -1 -10 -10 -6 2 -8 37 -3 28 3 67 3 86 -1 33 -6
37 -11 53 -64 15 -48 18 -104 19 -362 0 -168 4 -314 9 -325 6 -16 6 -17 -3 -5
-7 9 -11 10 -11 3 0 -6 9 -18 20 -26 11 -8 17 -17 13 -20 -3 -4 -1 -7 5 -7 15
0 15 -5 13 255 -2 144 1 217 7 210 6 -5 33 -78 60 -160 54 -161 116 -311 138
-334 37 -40 13 85 -41 214 -15 36 -80 228 -126 375 -24 76 -33 124 -34 175 l0
70 85 6 c47 4 236 12 420 18 363 13 461 21 460 36 0 12 -298 12 -698 0 l-273
-8 2 96 c1 73 5 97 16 101 8 3 12 2 9 -3 -3 -5 0 -11 7 -14 8 -3 13 2 13 12
-1 9 1 17 4 18 3 1 18 8 34 17 16 8 34 12 39 9 6 -3 7 -1 3 5 -12 19 62 27
219 23 307 -7 464 -3 442 11 -7 5 0 8 16 8 16 0 26 -4 23 -9 -4 -5 3 -7 13 -4
11 3 18 10 16 16 -5 15 82 59 90 46 4 -5 11 -9 16 -9 6 0 7 5 4 10 -6 10 0 11
55 15 14 1 34 4 45 8 28 9 40 -1 67 -60 28 -62 52 -61 38 2 -5 22 -8 41 -6 42
2 2 30 -11 62 -29 127 -68 194 -97 250 -107 75 -13 197 -17 214 -6 9 6 11 4 5
-4 -5 -9 -2 -12 10 -9 10 1 20 8 22 15 6 16 -50 28 -183 41 -101 9 -119 13
-180 47 -122 67 -189 101 -210 107 -15 4 -27 23 -42 65 l-20 60 76 7 c41 3 99
6 129 6 40 0 53 4 53 15 0 8 -1 16 -2 16 -2 1 -66 4 -143 8 l-139 6 -15 40
c-56 158 -135 303 -116 215 4 -19 27 -84 51 -144 24 -61 41 -112 39 -115 -3
-2 -92 -8 -198 -11 -193 -8 -246 -17 -300 -55 -27 -19 -16 -19 88 0 125 22
221 27 333 20 l103 -7 15 -36 c32 -77 31 -82 -14 -82 -51 0 -142 -21 -142 -32
0 -5 -4 -7 -8 -4 -5 3 -39 -7 -78 -21 -89 -32 -222 -39 -433 -21 l-154 13 101
53 c107 56 123 68 98 78 -17 7 -184 -70 -248 -114 -24 -16 -75 -46 -114 -65
l-72 -36 -6 87 c-14 187 -31 186 -41 -1 -6 -119 -9 -135 -27 -146 -25 -15 -31
-9 -47 49 -52 192 -143 422 -177 451 -13 11 -14 9 -8 -17 4 -16 29 -92 56
-169 27 -77 60 -174 73 -215 13 -41 26 -82 30 -92 6 -15 -19 -17 -298 -20
-223 -2 -308 -6 -319 -15 -13 -11 -16 18 -22 245 -15 575 -19 691 -28 686 -6
-4 -7 -198 -3 -493 3 -267 8 -819 10 -1225 5 -820 6 -843 70 -981 64 -139 172
-194 460 -234 39 -5 317 -11 618 -13 478 -3 549 -1 557 12 15 23 12 27 -22 33
-18 3 -46 8 -63 11 -28 5 -28 5 -5 -4 19 -7 9 -8 -39 -5 -35 3 -91 6 -125 6
l-61 2 70 8 c48 6 75 15 86 28 8 10 25 21 36 25 30 9 94 83 87 99 -4 11 21 15
123 21 91 5 132 11 144 22 14 13 18 13 28 0 7 -8 29 -20 49 -27 20 -6 41 -15
46 -19 5 -5 15 -6 22 -3 20 7 17 -18 -6 -47 -27 -35 -25 -63 9 -99 40 -42 30
-45 -127 -39 -70 3 -116 2 -102 -2 l25 -8 -24 -1 c-20 -1 -22 -4 -13 -14 10
-9 68 -12 225 -12 1737 4 1789 5 1936 42 195 48 301 162 303 324 0 30 6 68 13
84 25 61 36 376 43 1270 8 955 6 1205 -7 1205 -7 0 -21 -466 -21 -717 l0 -113
-81 0 c-73 0 -80 2 -74 18 23 54 36 114 36 164 1 89 -33 150 -138 256 -104
103 -200 171 -351 246 -113 57 -163 72 -301 90 l-85 11 -12 45 c-39 148 -107
368 -124 400 -28 56 -109 123 -172 144 -38 12 -113 20 -263 27 -115 5 -244 14
-285 19 -118 15 -237 11 -310 -10z m1332 -695 c68 -14 147 -37 175 -51 62 -30
110 -84 120 -134 8 -46 -15 -135 -63 -236 -20 -43 -53 -131 -73 -194 l-37
-115 -36 -3 c-35 -3 -36 -2 -47 45 -7 26 -27 102 -46 168 -37 131 -134 495
-143 534 -4 19 -2 23 11 18 9 -3 72 -18 139 -32z m456 -229 c162 -129 228
-226 220 -321 -6 -76 -46 -162 -78 -168 -53 -11 -440 -8 -440 3 0 13 47 137
101 265 55 133 72 199 67 261 l-5 54 34 -20 c19 -11 64 -44 101 -74z m-358
-558 c0 -7 -4 -19 -9 -26 -7 -11 -10 -10 -15 3 -10 26 -7 35 9 35 8 0 15 -6
15 -12z m-2851 -50 l-1 -43 -13 30 c-9 21 -10 34 -3 43 16 19 18 15 17 -30z
m-712 -140 c-2 -18 -4 -4 -4 32 0 36 2 50 4 33 2 -18 2 -48 0 -65z m1906 -886
c-6 -26 -10 -26 -43 -6 -14 8 -17 13 -7 10 9 -3 17 -1 17 4 0 7 29 19 37 15 1
0 0 -11 -4 -23z m-1532 -614 c34 -19 43 -20 79 -9 37 11 48 10 102 -11 53 -20
80 -41 181 -140 l120 -118 -35 0 c-30 0 -47 13 -154 120 l-119 119 -45 -11
c-25 -6 -51 -15 -57 -21 -9 -6 -13 -6 -13 1 0 6 -6 9 -13 7 -7 -3 -30 4 -52
15 -69 35 -102 28 -169 -39 -56 -55 -86 -68 -86 -35 0 7 27 40 60 72 33 32 60
56 60 54 0 -1 8 2 18 7 28 17 82 12 123 -11z m3816 -90 c-16 -38 -79 -98 -104
-98 -13 0 -14 2 -2 17 36 45 43 52 51 47 5 -3 7 -1 6 4 -3 9 54 71 60 67 2 -2
-3 -18 -11 -37z m-2890 15 c80 -6 82 -6 60 -23 -54 -43 -97 -52 -257 -53 -175
-2 -272 15 -336 58 l-37 25 244 0 c134 0 281 -3 326 -7z m2151 -27 c22 -13 -1
-35 -52 -50 -178 -52 -426 -58 -691 -16 -71 11 -136 41 -103 48 9 2 146 9 305
17 289 14 520 14 541 1z"/>
<path d="M2505 4076 c-60 -19 -171 -72 -179 -85 -10 -16 -10 -16 129 30 80 27
125 46 125 55 0 17 -22 17 -75 0z"/>
<path d="M1980 3952 c0 -9 101 -54 108 -47 10 10 -9 36 -33 45 -32 12 -75 13
-75 2z"/>
<path d="M1525 3910 c-342 -38 -399 -41 -412 -24 -7 10 -13 11 -18 5 -3 -6 -4
-11 0 -11 3 0 1 -9 -5 -20 -7 -14 -7 -20 0 -20 6 0 10 -30 10 -74 0 -67 10
-99 27 -83 3 3 5 40 4 81 -1 66 1 76 16 76 10 0 126 9 258 20 245 21 336 37
343 58 5 15 -17 14 -223 -8z"/>
<path d="M3569 3488 c-44 -82 -99 -208 -99 -224 0 -24 27 0 50 45 24 48 82
213 76 218 -3 3 -15 -15 -27 -39z"/>
<path d="M2150 3230 c-18 -12 -2 -12 25 0 13 6 15 9 5 9 -8 0 -22 -4 -30 -9z"/>
<path d="M2150 3206 c0 -2 8 -10 18 -17 15 -13 16 -12 3 4 -13 16 -21 21 -21
13z"/>
<path d="M2118 3178 c9 -9 8 -16 -6 -32 -17 -21 -17 -21 5 -2 18 15 20 22 12
33 -6 7 -14 13 -17 13 -3 0 -1 -5 6 -12z"/>
<path d="M2270 3175 c0 -5 5 -17 10 -25 5 -8 10 -10 10 -5 0 6 -5 17 -10 25
-5 8 -10 11 -10 5z"/>
<path d="M2950 3121 c-27 -18 4 -32 61 -29 40 2 54 7 54 18 0 18 -91 26 -115
11z"/>
<path d="M2194 3068 l-19 -23 23 19 c21 18 27 26 19 26 -2 0 -12 -10 -23 -22z"/>
<path d="M2229 3063 c-13 -16 -12 -17 4 -4 9 7 17 15 17 17 0 8 -8 3 -21 -13z"/>
<path d="M2260 3041 c5 -11 15 -23 21 -26 7 -5 4 -15 -8 -28 l-18 -22 22 19
22 18 -21 29 c-25 33 -33 38 -18 10z"/>
<path d="M4363 2985 c0 -22 2 -30 4 -17 2 12 2 30 0 40 -3 9 -5 -1 -4 -23z"/>
<path d="M4342 2975 c0 -16 2 -22 5 -12 2 9 2 23 0 30 -3 6 -5 -1 -5 -18z"/>
<path d="M995 2980 c-19 -8 -19 -9 3 -9 12 -1 22 4 22 9 0 6 -1 10 -2 9 -2 0
-12 -4 -23 -9z"/>
<path d="M1021 2944 c0 -11 3 -14 6 -6 3 7 2 16 -1 19 -3 4 -6 -2 -5 -13z"/>
<path d="M938 2913 c7 -3 16 -2 19 1 4 3 -2 6 -13 5 -11 0 -14 -3 -6 -6z"/>
<path d="M815 2890 c-3 -5 -2 -10 4 -10 5 0 13 5 16 10 3 6 2 10 -4 10 -5 0
-13 -4 -16 -10z"/>
<path d="M3286 2768 c5 -46 9 -124 9 -174 0 -82 -3 -94 -28 -132 -15 -23 -46
-54 -69 -68 -34 -22 -143 -68 -183 -78 -91 -22 -168 -57 -155 -69 7 -7 155 19
172 29 7 5 20 10 29 11 9 1 37 12 63 23 26 11 56 20 66 20 27 0 152 39 410
130 129 45 246 85 260 89 15 5 26 16 28 30 3 19 0 21 -25 15 -33 -7 -248 -79
-384 -128 -53 -19 -120 -41 -148 -50 l-52 -15 19 27 c62 90 69 205 21 385 -6
23 -16 37 -26 37 -14 0 -15 -10 -7 -82z"/>
<path d="M908 2833 c6 -2 18 -2 25 0 6 3 1 5 -13 5 -14 0 -19 -2 -12 -5z"/>
<path d="M4310 2800 c-8 -5 -12 -12 -9 -15 4 -3 12 1 19 10 14 17 11 19 -10 5z"/>
<path d="M2202 2775 c0 -16 2 -22 5 -12 2 9 2 23 0 30 -3 6 -5 -1 -5 -18z"/>
<path d="M4268 2782 c-3 -11 0 -19 8 -19 8 0 14 9 14 19 0 10 -4 18 -9 18 -5
0 -11 -8 -13 -18z"/>
<path d="M2302 2760 c0 -19 2 -27 5 -17 2 9 2 25 0 35 -3 9 -5 1 -5 -18z"/>
<path d="M3450 2761 c0 -9 212 -81 238 -81 18 0 14 28 -6 39 -26 14 -176 51
-206 51 -14 0 -26 -4 -26 -9z"/>
<path d="M4140 2699 c0 -5 5 -7 10 -4 6 3 10 8 10 11 0 2 -4 4 -10 4 -5 0 -10
-5 -10 -11z"/>
<path d="M1836 2654 c-12 -81 -27 -432 -21 -492 10 -94 29 -75 36 39 10 143
10 462 0 478 -6 10 -11 2 -15 -25z"/>
<path d="M3035 2651 c-79 -29 -271 -123 -259 -127 6 -3 65 16 132 41 67 25
126 45 132 45 18 0 90 40 90 50 0 15 -38 11 -95 -9z"/>
<path d="M4200 2620 c-9 -6 -10 -10 -3 -10 6 0 15 5 18 10 8 12 4 12 -15 0z"/>
<path d="M802 2585 c0 -16 2 -22 5 -12 2 9 2 23 0 30 -3 6 -5 -1 -5 -18z"/>
<path d="M2380 2605 c0 -29 54 -165 66 -165 18 0 18 47 0 91 -14 32 -66 91
-66 74z"/>
<path d="M3927 2603 c-15 -14 -6 -31 13 -26 11 3 20 12 20 19 0 14 -22 19 -33
7z"/>
<path d="M2289 2538 c-5 -16 -4 -46 2 -42 4 2 7 13 6 24 -1 17 -5 26 -8 18z"/>
<path d="M2221 2514 c0 -11 3 -14 6 -6 3 7 2 16 -1 19 -3 4 -6 -2 -5 -13z"/>
<path d="M811 2504 c0 -11 3 -14 6 -6 3 7 2 16 -1 19 -3 4 -6 -2 -5 -13z"/>
<path d="M2250 2495 c-7 -8 -9 -15 -4 -15 5 0 2 -5 -6 -10 -13 -9 -13 -11 0
-20 10 -6 11 -10 3 -10 -17 0 -17 -16 0 -23 9 -3 12 6 11 32 0 20 3 42 9 49
14 17 2 15 -13 -3z"/>
<path d="M2206 2445 c-3 -8 0 -17 6 -21 6 -4 8 -3 4 4 -3 5 -1 12 6 14 8 3 9
6 1 11 -6 4 -13 0 -17 -8z"/>
<path d="M4285 2370 c3 -5 11 -10 16 -10 6 0 7 5 4 10 -3 6 -11 10 -16 10 -6
0 -7 -4 -4 -10z"/>
<path d="M4305 2350 c-13 -6 -15 -9 -5 -9 8 0 22 4 30 9 18 12 2 12 -25 0z"/>
<path d="M2055 2305 c-16 -13 -36 -24 -43 -25 -7 0 -10 -4 -7 -10 3 -5 0 -8
-7 -5 -16 6 -78 -30 -78 -46 0 -7 7 -8 18 -4 9 4 22 8 27 9 53 14 175 77 175
92 0 23 -52 17 -85 -11z"/>
<path d="M3410 2302 c0 -25 140 -80 270 -106 41 -8 134 -29 207 -46 72 -16
140 -30 151 -30 34 0 46 -57 38 -184 -20 -336 -20 -315 -1 -322 23 -9 32 7 40
74 12 95 8 414 -5 422 -10 6 42 16 130 24 19 2 26 9 28 29 4 31 -25 50 -66 44
-23 -3 -22 -4 8 -6 l35 -2 -40 -15 c-91 -34 -143 -30 -390 30 -126 31 -261 63
-300 72 -38 9 -78 18 -87 21 -10 2 -18 0 -18 -5z"/>
<path d="M812 2260 c0 -19 2 -27 5 -17 2 9 2 25 0 35 -3 9 -5 1 -5 -18z"/>
<path d="M4290 2210 c-9 -6 -10 -10 -3 -10 6 0 15 5 18 10 8 12 4 12 -15 0z"/>
<path d="M2230 2070 c8 -5 20 -10 25 -10 6 0 3 5 -5 10 -8 5 -19 10 -25 10 -5
0 -3 -5 5 -10z"/>
<path d="M3066 2062 c-9 -14 -10 -138 -1 -151 14 -24 25 4 25 67 0 66 -11 104
-24 84z"/>
<path d="M2218 1958 c6 -6 18 -8 28 -6 14 3 12 5 -9 10 -19 3 -25 2 -19 -4z"/>
<path d="M2223 1933 c9 -2 23 -2 30 0 6 3 -1 5 -18 5 -16 0 -22 -2 -12 -5z"/>
<path d="M1108 1793 c-5 -105 -5 -113 8 -113 7 0 20 14 28 32 18 35 21 58 7
58 -5 0 -11 14 -14 30 -9 42 -27 37 -29 -7z"/>
<path d="M2202 1795 c0 -16 2 -22 5 -12 2 9 2 23 0 30 -3 6 -5 -1 -5 -18z"/>
<path d="M2221 1764 c0 -11 3 -14 6 -6 3 7 2 16 -1 19 -3 4 -6 -2 -5 -13z"/>
<path d="M805 1760 c3 -5 8 -10 11 -10 2 0 4 5 4 10 0 6 -5 10 -11 10 -5 0 -7
-4 -4 -10z"/>
<path d="M4161 1723 c0 -12 -4 -30 -7 -40 -5 -17 -5 -17 6 0 6 10 9 28 7 40
-4 22 -4 22 -6 0z"/>
<path d="M2191 1714 c0 -11 3 -14 6 -6 3 7 2 16 -1 19 -3 4 -6 -2 -5 -13z"/>
<path d="M4132 1710 c0 -14 2 -19 5 -12 2 6 2 18 0 25 -3 6 -5 1 -5 -13z"/>
<path d="M1813 1692 c-17 -11 1 -35 23 -30 25 4 32 38 7 38 -10 0 -23 -4 -30
-8z"/>
<path d="M2297 1679 c4 -13 8 -18 11 -10 2 7 -1 18 -6 23 -8 8 -9 4 -5 -13z"/>
<path d="M2291 1614 c0 -11 3 -14 6 -6 3 7 2 16 -1 19 -3 4 -6 -2 -5 -13z"/>
<path d="M1453 1606 c-28 -6 -55 -14 -59 -18 -4 -5 -18 -8 -30 -8 -13 0 -26
-5 -29 -10 -4 -6 -10 -8 -14 -5 -5 2 -25 -5 -47 -15 -21 -11 -48 -20 -60 -20
-12 0 -24 -5 -26 -10 -2 -6 -12 -12 -24 -12 -11 -1 -20 -9 -20 -18 0 -15 6
-15 65 -3 35 7 74 11 85 8 13 -4 17 -3 9 2 -15 11 51 38 67 28 5 -3 10 -1 10
5 0 7 12 9 34 5 19 -4 36 -2 40 3 4 6 -3 8 -16 6 -22 -4 -22 -4 1 6 13 6 33 8
45 5 12 -3 15 -2 7 1 -9 5 -4 11 18 20 33 14 43 45 14 43 -10 -1 -41 -6 -70
-13z"/>
<path d="M1340 1600 c0 -5 5 -10 10 -10 6 0 10 5 10 10 0 6 -4 10 -10 10 -5 0
-10 -4 -10 -10z"/>
<path d="M1230 1590 c8 -5 22 -9 30 -9 10 0 8 3 -5 9 -27 12 -43 12 -25 0z"/>
<path d="M4042 1537 c-6 -7 -8 -24 -5 -37 5 -18 3 -21 -8 -15 -12 7 -12 6 -1
-7 7 -9 23 -18 35 -20 21 -4 22 -1 19 44 -4 49 -18 61 -40 35z"/>
<path d="M2281 1523 c0 -4 4 -17 9 -28 8 -19 9 -19 9 2 1 12 -3 25 -9 28 -5 3
-10 3 -9 -2z"/>
<path d="M1337 1504 c-10 -11 4 -33 18 -28 8 3 11 12 8 20 -5 15 -16 18 -26 8z"/>
<path d="M2853 1490 c-64 -7 -76 -17 -31 -25 47 -9 121 -2 125 11 5 15 -31 20
-94 14z"/>
<path d="M4426 1487 c3 -10 9 -15 12 -12 3 3 0 11 -7 18 -10 9 -11 8 -5 -6z"/>
<path d="M2192 1465 c0 -16 2 -22 5 -12 2 9 2 23 0 30 -3 6 -5 -1 -5 -18z"/>
<path d="M3108 1482 c-20 -2 -42 -9 -48 -17 -16 -19 34 -23 375 -31 355 -8
345 -8 372 18 15 15 13 17 -18 22 -40 6 -627 13 -681 8z"/>
<path d="M3153 1423 c9 -2 23 -2 30 0 6 3 -1 5 -18 5 -16 0 -22 -2 -12 -5z"/>
<path d="M3308 1423 c6 -2 18 -2 25 0 6 3 1 5 -13 5 -14 0 -19 -2 -12 -5z"/>
<path d="M3368 1423 c12 -2 30 -2 40 0 9 3 -1 5 -23 4 -22 0 -30 -2 -17 -4z"/>
<path d="M1803 1363 c15 -2 39 -2 55 0 15 2 2 4 -28 4 -30 0 -43 -2 -27 -4z"/>
<path d="M3588 1363 c7 -3 16 -2 19 1 4 3 -2 6 -13 5 -11 0 -14 -3 -6 -6z"/>
<path d="M3763 1363 c9 -2 23 -2 30 0 6 3 -1 5 -18 5 -16 0 -22 -2 -12 -5z"/>
<path d="M3388 1353 c6 -2 18 -2 25 0 6 3 1 5 -13 5 -14 0 -19 -2 -12 -5z"/>
<path d="M2468 1343 c7 -3 16 -2 19 1 4 3 -2 6 -13 5 -11 0 -14 -3 -6 -6z"/>
<path d="M2493 1323 c9 -2 25 -2 35 0 9 3 1 5 -18 5 -19 0 -27 -2 -17 -5z"/>
<path d="M2397 1249 c7 -7 15 -10 18 -7 3 3 -2 9 -12 12 -14 6 -15 5 -6 -5z"/>
<path d="M2008 1123 c7 -3 16 -2 19 1 4 3 -2 6 -13 5 -11 0 -14 -3 -6 -6z"/>
<path d="M2052 1123 c-10 -4 -7 -9 8 -20 12 -8 24 -12 27 -9 3 3 -2 8 -11 12
-9 3 -13 10 -10 15 6 10 5 10 -14 2z"/>
<path d="M420 818 c0 -52 15 -81 29 -58 9 12 6 51 -5 88 -8 28 -24 9 -24 -30z"/>
<path d="M458 668 c-9 -23 3 -68 18 -68 18 0 18 40 1 64 -11 16 -15 16 -19 4z"/>
<path d="M2288 633 c-28 -7 -21 -20 14 -27 49 -10 158 4 158 20 0 11 -18 14
-77 13 -43 -1 -86 -3 -95 -6z"/>
<path d="M1565 620 c-203 -8 -295 -17 -295 -30 0 -14 126 -23 228 -16 53 4
208 11 344 16 136 5 252 11 258 15 6 3 8 11 5 16 -7 10 -243 10 -540 -1z"/>
<path d="M3423 613 c-43 -8 -23 -21 40 -27 34 -3 136 -8 227 -12 91 -3 219
-12 285 -20 137 -16 295 -18 295 -5 0 15 -86 29 -236 41 -77 6 -195 15 -264
20 -123 10 -304 11 -347 3z"/>
<path d="M4639 560 c-18 -33 -46 -73 -63 -87 -56 -48 -149 -84 -257 -100 -56
-8 -111 -18 -123 -23 -20 -7 -19 -8 7 -15 16 -4 69 -5 117 -3 77 5 99 10 173
46 97 48 165 114 186 182 21 71 -2 71 -40 0z"/>
<path d="M738 569 c-91 -9 -194 -34 -252 -60 -51 -22 -91 -62 -83 -83 9 -23
22 -20 36 8 28 51 153 90 333 103 94 6 123 16 98 33 -17 11 -23 11 -132 -1z"/>
<path d="M4013 334 c-25 -11 -12 -25 20 -22 17 2 32 8 32 13 0 11 -33 17 -52
9z"/>
</g>
</svg>
