<?xml version="1.0" encoding="UTF-8" standalone="no"?>
<!-- Created with Inkscape (http://www.inkscape.org/) -->

<svg
   version="1.1"
   id="svg2"
   width="666.66669"
   height="666.66669"
   viewBox="0 0 666.66669 666.66669"
   sodipodi:docname="medium.eps"
   xmlns:inkscape="http://www.inkscape.org/namespaces/inkscape"
   xmlns:sodipodi="http://sodipodi.sourceforge.net/DTD/sodipodi-0.dtd"
   xmlns="http://www.w3.org/2000/svg"
   xmlns:svg="http://www.w3.org/2000/svg">
  <defs
     id="defs6" />
  <sodipodi:namedview
     id="namedview4"
     pagecolor="#ffffff"
     bordercolor="#000000"
     borderopacity="0.25"
     inkscape:showpageshadow="2"
     inkscape:pageopacity="0.0"
     inkscape:pagecheckerboard="0"
     inkscape:deskcolor="#d1d1d1" />
  <g
     id="g8"
     inkscape:groupmode="layer"
     inkscape:label="ink_ext_XXXXXX"
     transform="matrix(1.3333333,0,0,-1.3333333,0,666.66667)">
    <g
       id="g10"
       transform="scale(0.1)">
      <path
         d="M 5000,0 H 0 V 5000 H 5000 V 0"
         style="fill:#ffffff;fill-opacity:1;fill-rule:nonzero;stroke:none"
         id="path12" />
      <path
         d="m 3396.38,2698.57 c -1.16,-16.01 -0.74,-31.75 -0.33,-47.49 0.49,-19.47 1.07,-38.93 -1.32,-58.89 -5.11,-42.87 -7.5,-86.08 -8.82,-129.21 -2.56,-87 0.16,-174.16 0.16,-261.24 0,-49.32 -0.24,-98.61 -0.58,-147.93 -0.65,-87.99 -1.48,-175.98 -1.48,-264.38 0,-63.81 -1.16,-137.29 -20.53,-195.91 -21.6,-65.56 -103.49,-76.45 -161.71,-82.31 -79.82,-7.99 -158.48,-25.22 -238.31,-33.14 -137.21,-13.61 -281.68,-7.01 -420.54,-1.98 -55.34,1.98 -110.26,2.22 -165.42,2.14 -23.09,0 -46.34,-0.07 -69.6,-0.07 -83.12,0 -164.51,0.25 -247.87,3.45 -48.57,1.91 -96.48,11.89 -145.87,15.02 -90.96,5.6 -286.56,-18.15 -307.09,111.48 -7.34,45.93 0,96.8 1.07,142.91 1.32,56.23 -0.74,112.72 -1.4,169.04 -0.33,28.19 -0.66,56.48 -0.91,84.77 -0.74,85.1 -0.58,170.19 2.56,255.3 3.22,89.88 -8.25,180.75 -8.25,272.11 0,26.63 0.25,53.36 0.58,80 0.66,64.72 1.57,129.29 -0.58,192.13 -5.28,149.41 0.74,298.67 0.66,448.75 0,48.23 -13.1,118.74 12.95,162.27 14.43,24.16 34.72,36.04 59.7,43.38 57.47,16.98 117.76,23.91 177.29,35.05 119.24,22.35 239.88,13.52 359.37,28.36 120.88,14.93 244.4,19.22 365.79,7.25 67.04,-6.67 137.38,-5.27 204.09,-12.52 91.69,-10.06 185.12,1.89 278.3,-8.17 61.76,-6.68 123.94,-18.22 182.98,-33.48 45.68,-11.71 116.76,-30.42 142.16,-76.27 28.04,-50.55 14.6,-135.9 12.95,-193.29 -1.98,-67.54 4.45,-134.25 2.06,-202.04 -2.39,-67.77 -2.47,-135.72 0,-202.02 1.32,-34.3 0.33,-69.43 -2.06,-103.07"
         style="fill:#fefcf5;fill-opacity:1;fill-rule:nonzero;stroke:none"
         id="path14" />
      <path
         d="m 3331.56,2460.56 c 1.49,-33.17 2.95,-66.32 2.97,-98.7 0.07,-89.28 -13.85,-179.33 -7.63,-266.63 7.41,-104.05 -13.72,-215.28 -129.83,-242.13 -181.06,-41.9 -364.58,-1.57 -546.96,-8 -90.47,-3.18 -180.84,-5.5 -272.12,-5.5 -169.57,0 -342.46,-14.43 -511.33,2.78 -57.55,5.82 -132.66,11.41 -163.6,65.98 -26.44,46.63 -29.22,107.09 -31.48,159.39 -3.69,85.6 -1.27,168.52 -1.02,252.93 0.29,94.34 -15.98,188.21 -9.56,282.64 83.6,12.99 170.51,-3.77 255.2,3.17 42.77,3.49 75.56,39.81 117.38,49.17 54.31,12.13 99.38,-6.12 153.19,-9.46 51.73,-3.23 99.72,18.61 147.01,35.26 52.16,18.37 91.15,6.83 140.33,-20.69 66.28,-37.07 113.75,-34.65 185.11,-32.71 87.5,2.35 175.18,-8.19 262.93,-5.11 138.67,4.86 268.94,-22.15 409.07,8.01 -4.93,-53.93 -2.26,-112.15 0.34,-170.4"
         style="fill:#f25a1a;fill-opacity:1;fill-rule:nonzero;stroke:none"
         id="path16" />
      <path
         d="m 1606.99,3156.22 c -2.84,29.14 2.02,59.59 28.06,73.6 60.85,-75.8 21.42,-297.14 21.42,-395.19 0,-138.15 4.39,-273.87 4.12,-412.3 -0.26,-131.76 -5.45,-269.3 8.26,-399.94 7.37,-70.2 49.08,-94.63 66.17,-152.34 8.61,-29.07 -2.17,-165.9 -23.84,-182.73 -69.82,-54.27 -100.96,187.47 -104.19,223.75 v 1245.15"
         style="fill:#e8efd4;fill-opacity:1;fill-rule:nonzero;stroke:none"
         id="path18" />
      <path
         d="m 3388.13,3383.01 c 0,10.34 -43.54,-53.17 -46.3,-65.04 -11.76,-50.61 1.01,-103.36 -0.46,-154.21 -5.41,-186.12 5.54,-367.01 5.54,-551.78 0,-107.41 12,-222.9 -1.7,-329.5 -15.5,-120.55 9.61,-337.01 -96.24,-421.91 -22.05,-17.69 -54.08,-10.18 -63.77,-39.31 -5.66,-17.01 13.78,-63.5 13.06,-87.48 -1.32,-43.94 -31.97,-163.79 48.67,-147.51 50.26,10.15 54.94,83.74 80.41,113.91 67.3,-42.54 56.85,148.07 56.95,188.13 0.24,92.21 0.48,184.41 0.71,276.59 0.64,247.12 1.28,494.23 1.91,741.34 0.41,158.91 1.36,317.83 1.22,476.77"
         style="fill:#e8efd4;fill-opacity:1;fill-rule:nonzero;stroke:none"
         id="path20" />
      <path
         d="m 2798.54,3473.69 c 114.8,0 313.46,24.21 313.54,-141.06 0.06,-111.71 3.11,-223.37 5.05,-335.05 0.98,-56.21 1.8,-112.44 1.81,-168.66 0,-39.94 18.15,-149.5 -2.7,-182.49 -25.36,-40.13 -179.27,-29.33 -230.8,-32.25 -104.52,-5.94 -210.4,-4.08 -313.69,14.29 -58.38,10.37 -110.48,13.96 -136.15,74.09 -28.99,67.95 -9.48,168.33 -12.04,244.4 -4.17,124.13 -0.21,249.13 -0.21,374.17 0,78.77 -26.42,137.71 59.81,152.93 105.36,18.63 209.17,-0.37 315.38,-0.37"
         style="fill:#fefcf5;fill-opacity:1;fill-rule:nonzero;stroke:none"
         id="path22" />
      <path
         d="m 2469.72,1619.36 c 32.66,-37.68 140.98,-23.81 188.64,-25.55 87.36,-3.18 168.53,2.78 255.28,-3.91 46.19,-3.55 146.69,-14.98 173.29,36.89 14.77,28.83 10.39,98.45 11.67,131.73 4.94,127.63 -224.29,93.24 -312.43,90.7 -88.98,-2.55 -218.98,13.16 -303.18,-10.72 -77.98,-22.12 -54.27,-171.85 -13.27,-219.14"
         style="fill:#f2f7e6;fill-opacity:1;fill-rule:nonzero;stroke:none"
         id="path24" />
      <path
         d="m 2497.56,1478.16 c -79.27,21.32 37.19,43.56 61.85,45.37 52.58,3.84 106.91,4.1 160.8,4.1 99.28,0 226.09,29.65 320.95,3.42 -11.52,-60.08 -200.92,-47.01 -250.89,-48.75 -95.1,-3.35 -195.85,-19.81 -288.58,-12.4 l -4.13,8.26"
         style="fill:#e8efd4;fill-opacity:1;fill-rule:nonzero;stroke:none"
         id="path26" />
      <path
         d="m 3149,3428.34 c -15.83,-64.9 -6.55,-147.66 -4.13,-214.39 2.48,-68.19 -13.18,-150.41 8.97,-213.76 58.04,23.89 47.18,165.91 48.76,222 1.15,40.8 11.57,221.28 -32.98,214.4 l -20.62,-8.25"
         style="fill:#e8efd4;fill-opacity:1;fill-rule:nonzero;stroke:none"
         id="path28" />
      <path
         d="m 2287.29,3469.56 c 0,-123.92 4.12,-247.63 4.12,-372.1 0,-84.41 -20.73,-206.37 13.21,-282.82 83.25,12.16 52.76,549.16 52.76,638.44 l -70.09,16.48"
         style="fill:#ffffff;fill-opacity:1;fill-rule:nonzero;stroke:none"
         id="path30" />
      <path
         d="m 2303.78,1490.52 c 0,38.24 -13.2,292.06 36.21,283.63 47.79,-8.12 35.12,-248.26 33.88,-287.75 l -70.09,4.12"
         style="fill:#e8efd4;fill-opacity:1;fill-rule:nonzero;stroke:none"
         id="path32" />
      <path
         d="m 2175.96,1478.16 c 0,64.23 -17.35,168.16 17.53,222.02 77.83,-31.59 28.53,-161.64 44.32,-222.02 h -61.85"
         style="fill:#e8efd4;fill-opacity:1;fill-rule:nonzero;stroke:none"
         id="path34" />
      <path
         d="m 3257.57,2628.48 c -16.37,-53.87 -30.42,-111.65 -63.97,-158.88 -12.86,-18.09 -26.71,-41.87 -48.73,-52.16 -23.39,-10.92 -58.28,6.35 -74.48,-8.86 14.29,-31.6 75.53,-26.02 104.72,-39.1 38.98,-17.45 67.63,-43.4 85.21,-81.99 27.62,-60.6 28.51,-198.69 8.85,-264.32 -22.74,-75.89 -158.13,-79.82 -225.99,-84.59 -88.88,-6.25 -182.53,-2.36 -272.12,-5.52 -45.93,-1.62 -92.3,0.48 -137.44,-2.75 -41.16,-2.94 -92.42,8.51 -131.93,-2.75 -38.91,-11.07 -61.42,-57.31 -22.67,-83.13 30.83,-20.54 92,-7.54 129.86,-7.57 182.99,-0.17 377.03,-1.22 558.6,18.63 201.12,21.99 172.76,267.62 167.05,426.65 -4.03,112.31 -5.45,228.73 -5.49,340.84 l -71.47,5.5"
         style="fill:#cd501f;fill-opacity:1;fill-rule:nonzero;stroke:none"
         id="path36" />
      <path
         d="m 1666.09,2609.23 c 26.81,-14.66 94.43,-2.74 129.18,-2.74 44.24,0 85.95,-4.11 128.22,-5.38 -32.49,-22.16 -76.85,-37.15 -92.4,-74.49 -20.76,-49.81 -6.02,-114.34 -1.15,-165.83 6.08,-64.49 1.5,-129.46 3.82,-194.09 1.77,-49.48 -3.98,-102.15 11.7,-149.99 34.87,-106.32 163.9,-72.28 252.17,-75.41 46.19,-1.63 91.5,-2.73 137.43,-2.73 13.91,0 57.41,7.05 66.18,-5.3 14.15,-19.95 -18.41,-46.26 -33.19,-54.48 -59.03,-32.83 -158.5,-25.93 -226.01,-28.8 -86.45,-3.67 -181.41,-10.62 -265.42,12.22 -145.11,39.43 -110.52,229.57 -110.53,340.22 -0.01,81.08 -5.26,164.62 2.82,245.03 2.45,24.3 25.99,146.02 -2.82,161.77"
         style="fill:#cd501f;fill-opacity:1;fill-rule:nonzero;stroke:none"
         id="path38" />
      <path
         d="m 2369.66,1928.23 c -21.09,-11.14 -64.51,-42.13 -43.8,-58.32 23.28,-18.19 85.46,-0.74 106.08,15.17 55.12,42.51 -22.85,63.98 -62.28,43.15"
         style="fill:#f57e21;fill-opacity:1;fill-rule:nonzero;stroke:none"
         id="path40" />
      <path
         d="m 2439.84,2682.07 c -41.95,-25.99 -18.12,-143.48 -16.4,-189.56 2.5,-66.83 -4.22,-133.8 -4.22,-202.13 0,-105 -36.89,-302.52 98.95,-317.47 63.88,-7.02 141.32,11.81 206.16,16.5 69.9,5.04 133.21,10.78 202.03,8.24 55.48,-2.03 145.89,-7.29 173.05,41.44 27,48.48 12.49,141.06 12.48,197.7 -0.02,130.19 0,256.67 -4.75,386.94 -114.17,-1.87 -231.16,4.92 -349.83,0.62 -115.32,-4.17 -224.63,-13.83 -317.47,57.72 v 0"
         style="fill:#f57e21;fill-opacity:1;fill-rule:nonzero;stroke:none"
         id="path42" />
      <path
         d="m 2017.34,2632.6 c -98.81,-78.5 -10.96,-196.26 -34.83,-280.37 -19.91,-70.15 -8.09,-141.58 15.24,-210.27 7.08,-20.87 -19.27,-88.05 117.59,-94.9 168.4,-8.42 200.99,70.83 216.05,94.8 63.46,101.04 38.74,206.82 38.74,309.32 0,32.59 43.74,273.91 -333.18,193.78 l -19.61,-12.36"
         style="fill:#f57e21;fill-opacity:1;fill-rule:nonzero;stroke:none"
         id="path44" />
      <path
         d="m 3173.74,2261.52 c 0,-60.76 -21.69,-184.57 21.63,-230.27 37.82,28.12 39.95,103.71 40.21,147.81 0.16,27.02 -11.03,157.08 -49.48,90.71 l -12.36,-8.25"
         style="fill:#f7961a;fill-opacity:1;fill-rule:nonzero;stroke:none"
         id="path46" />
      <path
         d="m 1830.46,2288.82 c 0,-21.06 17.65,-295.79 -47.56,-256.3 -15.74,9.53 -11.52,73.11 -11.53,90 -0.07,91.49 5.05,183.64 8.3,274.87 1.51,42.39 -8.63,94.74 2.83,134.54 19.34,67.16 49.54,8.19 51.8,-28.53 4.34,-70.72 -3.84,-143.64 -3.84,-214.58"
         style="fill:#cd501f;fill-opacity:1;fill-rule:nonzero;stroke:none"
         id="path48" />
      <path
         d="m 3083.67,2409.33 c 10.95,-43.27 65.54,-34.71 95.86,-48.76 8.75,-4.06 60.25,-45.54 62.86,-45 33.28,6.85 15.56,93.72 14.72,119.21 -1.62,49.03 27.36,132.99 -9.27,169.47 -28.18,-40.37 -29.05,-94.21 -48.46,-137.47 -26.93,-60.01 -51.9,-55.18 -115.71,-57.45"
         style="fill:#f57e21;fill-opacity:1;fill-rule:nonzero;stroke:none"
         id="path50" />
      <path
         d="m 1916.22,2603.73 c -84.69,-31.39 -91.44,-79.6 -95.77,-160.48 -20.86,33.58 -43.77,92.13 -19.68,131.84 24.91,41.03 78.51,33.59 123.69,28.64 h -8.24"
         style="fill:#f57e21;fill-opacity:1;fill-rule:nonzero;stroke:none"
         id="path52" />
      <path
         d="m 2683.1,1923.44 c 100.26,-21.68 228.62,22.12 329.32,-9.17 -46.51,-46.91 -345.42,-35.97 -333.44,0.92 l 4.12,8.25"
         style="fill:#f57e21;fill-opacity:1;fill-rule:nonzero;stroke:none"
         id="path54" />
      <path
         d="m 1978.06,1931.68 c 72.33,6.93 156.7,-1.75 230.36,-4.83 -28.28,-43.46 -227.89,-36.08 -246.85,8.95 l 16.49,-4.12"
         style="fill:#f57e21;fill-opacity:1;fill-rule:nonzero;stroke:none"
         id="path56" />
      <path
         d="m 2969.36,2966.89 c 101.39,-36.69 115.43,384.87 -12.1,440.7 -108.55,47.49 -362.42,39.97 -356.97,-123.15 4.51,-134.87 115.57,-78.9 196.7,-105.1 104.84,-33.86 76.9,-177.83 172.37,-212.45"
         style="fill:#ffffff;fill-opacity:1;fill-rule:nonzero;stroke:none"
         id="path58" />
      <path
         d="m 2911.86,1832.39 c -60.66,0 -197.63,23.14 -247.3,-8 -78.62,-49.27 -45.76,-129.32 31.89,-151.56 75.54,-21.63 177.19,15.92 247.33,30.14 61.48,12.47 208.2,75.01 63.82,121.45 l -95.74,7.97"
         style="fill:#fefcf5;fill-opacity:1;fill-rule:nonzero;stroke:none"
         id="path60" />
      <path
         d="m 2193.82,2662.14 c -59.06,0 -134.82,12.54 -155.58,-47.87 -19.24,-55.99 9.9,-138.5 11.97,-195.47 4.03,-110.9 22.75,-298.23 192.46,-224.37 136.47,59.4 154.47,464.47 -40.87,459.73 l -7.98,7.98"
         style="fill:#f79618;fill-opacity:1;fill-rule:nonzero;stroke:none"
         id="path62" />
      <path
         d="m 2875.97,2610.48 c -65.11,-4.56 -133.17,-2.95 -198.19,2.79 -41.47,3.67 -101.62,36.27 -140.57,24.5 -65,-19.74 -37.82,-95.07 -36.13,-146.29 2.59,-78.9 15.99,-153.3 15.86,-232.24 -0.11,-61.59 -17.54,-144.39 47.96,-171.53 56.97,-23.63 160.36,0 223.3,0 48.15,0 165.76,-15.48 202.43,16.96 44.82,39.68 26.81,154.42 24.96,206.22 -2.79,78.21 -5.97,153.54 -7.99,231.57 -2.27,87.75 -53.48,73.5 -131.63,68.02"
         style="fill:#f79618;fill-opacity:1;fill-rule:nonzero;stroke:none"
         id="path64" />
      <path
         d="m 3215.03,2482.63 c -26.06,-26.58 -54.47,-54.04 -67.22,-90.75 21.79,-25.36 52.72,-44.16 86.58,-40.3 10.03,38.71 -5.44,81.81 -7.39,123.07 l -11.97,7.98"
         style="fill:#f79618;fill-opacity:1;fill-rule:nonzero;stroke:none"
         id="path66" />
      <path
         d="m 3127.27,2410.82 c 32.96,10.09 75.43,60.25 74.91,0 -0.49,-56.23 -52.27,-48.14 -82.89,-19.95 l 7.98,19.95"
         style="fill:#f8d842;fill-opacity:1;fill-rule:nonzero;stroke:none"
         id="path68" />
      <path
         d="m 2070.16,2538.48 c 61.7,21.82 137.5,12.5 203.44,11.96 49.73,-0.41 52.05,13.32 46.76,-35.9 -2.95,-27.5 -20.84,-60.81 -29.82,-84.67 -61.65,-163.59 -191.16,-80.63 -212.39,56.74 -2.23,14.4 -4.1,27.33 -4.01,39.9 l -3.98,11.97"
         style="fill:#f8d842;fill-opacity:1;fill-rule:nonzero;stroke:none"
         id="path70" />
      <path
         d="m 2820.11,2526.51 c 32.09,-22.98 131.25,-96.67 131.73,-15.96 0.39,64.6 -102.89,76.3 -131.73,27.93 v -11.97"
         style="fill:#f8d842;fill-opacity:1;fill-rule:nonzero;stroke:none"
         id="path72" />
      <path
         d="m 2732.35,2562.4 c 19.79,-50.56 45.95,-120.61 11.95,-170.54 -28.36,-41.66 -123.94,-77.08 -171.72,-87.75 -85.05,-18.97 -41.51,70.75 -14.86,117.8 5.16,9.11 17.24,12.66 23.03,24.83 5.99,12.6 0.02,34.02 4.88,47.87 10.97,31.25 32.79,52.73 63.84,62.92 33.09,10.88 86.75,12.97 102.83,-23.05 l -19.95,27.92"
         style="fill:#f8d842;fill-opacity:1;fill-rule:nonzero;stroke:none"
         id="path74" />
      <path
         d="m 3071.43,2606.29 c 39.46,-4.3 84.57,0.29 123.05,-8.58 3.15,-44.3 -19.55,-121.63 -75.19,-123.06 -55.58,-1.43 -90.07,115.99 -51.85,127.65 l 3.99,3.99"
         style="fill:#f79618;fill-opacity:1;fill-rule:nonzero;stroke:none"
         id="path76" />
      <path
         d="m 2145.95,2526.51 c 36.98,0 73.51,2.21 107,-8.67 -17.62,-104.2 -129.99,-51.14 -95.03,8.67 h -11.97"
         style="fill:#f1f4d4;fill-opacity:1;fill-rule:nonzero;stroke:none"
         id="path78" />
      <path
         d="m 2708.41,2502.57 c 35.61,-46.92 -25.87,-118.27 -79.08,-99.03 -5.27,43.79 38.85,72.53 71.11,95.05 l 7.97,3.98"
         style="fill:#f1f4d4;fill-opacity:1;fill-rule:nonzero;stroke:none"
         id="path80" />
      <path
         d="m 2205.79,2538.48 c -39.48,-5.64 -34.47,-45.27 3.99,-48.08 46.25,-3.39 21.12,43.94 -11.97,44.08 l 7.98,4"
         style="fill:#fafaec;fill-opacity:1;fill-rule:nonzero;stroke:none"
         id="path82" />
      <path
         d="m 2212.84,3232.55 c -0.8,30.53 -0.96,61.1 0.04,91.77 1.54,47.52 3.89,98.12 -7.79,142.93 -112.4,4.72 -137.91,-45.15 -130.95,-153.78 11.88,-185.4 -9.62,-392.89 20.88,-579.11 9.67,-59 97.52,-92.42 134.91,-28.33 13.31,22.81 0.6,71.05 -0.21,96.63 -2.56,80.98 -4.79,159.5 -8.16,240.28 -2.65,63.36 -7.06,126.39 -8.72,189.61"
         style="fill:#ffffff;fill-opacity:1;fill-rule:nonzero;stroke:none"
         id="path84" />
      <path
         d="m 1950.39,2733.94 c 0.13,-34.37 10.36,-60.51 -22.95,-80.76 -35,-21.27 -58.43,-1.02 -72.91,28.9 -46.7,96.41 -22.84,268.89 -19.73,374.96 2.48,84.77 -3.04,175.45 7.96,259.2 14.61,111.27 111.13,144.66 133.43,20.96 18.43,-102.22 8.71,-209.43 -15.38,-309.12 -23.25,-96.15 -10.8,-195.46 -10.42,-294.14"
         style="fill:#ffffff;fill-opacity:1;fill-rule:nonzero;stroke:none"
         id="path86" />
      <path
         d="m 2076.8,2999.88 c 80.27,38.4 168.14,66.53 248.68,102.38 65.57,29.19 158.09,87.42 235.34,62.75 75.5,-24.11 94.38,-128.92 111.83,-191.59 16.21,-58.19 69.9,-169.44 58.08,-229.12 -24.15,-121.87 -146.53,4.42 -185.85,53.58 -69.7,87.15 -134.28,79.66 -239.37,79.66 -87.24,0 -179.17,-8.44 -265.94,0 -119.09,11.58 -76.86,89.8 11.7,123.81 30.67,11.79 63.86,18.2 94.68,30.45 l -69.15,-31.92"
         style="fill:#e8efd4;fill-opacity:1;fill-rule:nonzero;stroke:none"
         id="path88" />
      <path
         d="m 3143.23,2829.68 c 6.09,-73.77 -101.59,-248.89 63.93,-188.49 120.96,44.15 25,164.67 -48.07,204.05 -5.69,-8.24 -7.4,-17.41 -7.88,-27.53 l -7.98,11.97"
         style="fill:#e8efd4;fill-opacity:1;fill-rule:nonzero;stroke:none"
         id="path90" />
      <path
         d="m 2914.47,2999.42 c -14.47,-0.22 -24.25,7.15 -35.46,16.81 -26.5,22.84 -31.58,50.29 -65.9,65.76 -29.06,13.09 -72.13,3.27 -96.5,27.84 -44.51,44.84 54.75,65.66 85.33,60.82 51.12,-8.11 131.49,-122.72 112.53,-171.23"
         style="fill:#e8efd4;fill-opacity:1;fill-rule:nonzero;stroke:none"
         id="path92" />
      <path
         d="m 3013.74,2635.74 c 1.46,1.77 2.75,3.72 3.85,5.85 11.69,22.65 -39.9,122.75 -45.58,150.86 -6.64,32.81 -0.27,76.64 -20.48,103.78 -24.4,-43.75 1.05,-95.36 -7.56,-142.61 -6.18,-33.84 -38.04,-77.8 -13.78,-110.93 17.32,-23.65 64.56,-30.02 83.55,-6.95"
         style="fill:#e8efd4;fill-opacity:1;fill-rule:nonzero;stroke:none"
         id="path94" />
      <path
         d="m 2167.22,3047.75 c 122.88,55.95 522.33,246.19 477.79,-31.25 -80.74,61.55 -72.68,134.59 -201.36,105.86 -55.12,-12.3 -223.42,-108.43 -260.47,-79.94 l -15.96,5.33"
         style="fill:#ffffff;fill-opacity:1;fill-rule:nonzero;stroke:none"
         id="path96" />
      <path
         d="m 2715.4,2829.67 c 14.85,-52.12 14.43,-126.31 72.81,-150.67 171.24,-71.48 42.16,248.83 14.96,305.35 -14.63,30.39 -70.18,108.63 -111.67,103.32 -75.05,-9.66 13.4,-221.14 23.9,-258"
         style="fill:#ffffff;fill-opacity:1;fill-rule:nonzero;stroke:none"
         id="path98" />
      <path
         d="m 3075.55,2809.91 c 48.64,-70.17 68.44,56.96 23.27,73.37 -52.04,18.91 -38.09,-52 -23.27,-73.37"
         style="fill:#ffffff;fill-opacity:1;fill-rule:nonzero;stroke:none"
         id="path100" />
      <path
         d="m 1870.7,1816.45 c 19.08,-70.11 -10.06,-156.99 3.78,-231.58 13.26,-71.44 67.81,-76.55 131.96,-87.45 80.14,-13.62 109.54,14.13 115.56,99.62 2.55,36.17 18.64,180.18 -4.99,202.43 -30.17,28.42 -177.35,6.32 -222.38,16.98 h -23.93"
         style="fill:#ffffff;fill-opacity:1;fill-rule:nonzero;stroke:none"
         id="path102" />
      <path
         d="m 2441.14,2219.34 c -48.13,-183.35 324.89,-53.88 291.21,99.73 l -291.21,-99.73"
         style="fill:#f8d842;fill-opacity:1;fill-rule:nonzero;stroke:none"
         id="path104" />
      <path
         d="m 2177.86,2147.54 c 22.15,-54.81 105.7,-31.62 115.69,19.94 l -115.69,-19.94"
         style="fill:#f8d842;fill-opacity:1;fill-rule:nonzero;stroke:none"
         id="path106" />
      <path
         d="m 2500.98,2243.28 c -8.46,-75.69 153.47,0.44 167.54,55.85 l -167.54,-55.85"
         style="fill:#f1f4d4;fill-opacity:1;fill-rule:nonzero;stroke:none"
         id="path108" />
      <path
         d="m 3286.63,1533.3 c -36.77,-11.21 -76.09,-13.51 -114.18,-16.54 -50.02,-3.97 -99.64,-11.46 -149.62,-15.96 -126.34,-11.4 -253.42,-12.71 -380.17,-15.03 -123.71,-2.24 -247.2,-4.74 -370.94,-1.52 -124.38,3.24 -249.41,7.58 -373.55,15.94 -59.24,3.99 -118.28,9.64 -176.54,21.35 -52.96,10.66 -96.63,29.35 -107.43,86.64 -4.47,23.71 -3.73,48.71 -4.56,73.06 4.93,432.92 1.28,866.26 -0.42,1299.27 -0.12,28.83 -0.33,57.63 -0.64,86.42 3.04,71.09 0.72,142.85 1.38,213.76 0.33,34.7 0.78,69.4 1.7,104.09 1.22,45.83 42.34,62.65 80.9,73.27 36.09,9.94 74,13.07 111.11,16.88 50.66,5.19 100.94,13.32 151.6,18.66 128.68,13.52 258.24,16.86 387.48,21.14 252.85,8.35 508.82,4.04 760.26,-26.78 52.26,-6.41 102.49,-19.55 153.87,-30.22 23.86,-4.97 47.42,-9.31 70.57,-17.15 47.58,-16.14 59.59,-54.82 59.88,-100.41 0.22,-35.05 0.12,-70.11 0.38,-105.15 0.6,-83.58 2.77,-167.28 4.42,-250.94 -0.68,-46.44 -1.31,-92.87 -1.66,-139.26 -1.92,-254.19 -4.36,-508.36 -7.72,-762.52 -0.87,-1.15 -1.52,-2.5 -1.53,-4.33 -0.44,-103.25 -0.46,-206.88 -4.14,-310.08 -1.83,-50.95 -4.53,-101.49 -13.92,-151.7 -8.74,-46.71 -31.15,-69.06 -76.53,-82.89 z m 98.5,1889.32 c -28.53,33.26 -70.09,42.85 -111.39,51.26 -52.1,10.61 -103.11,23.8 -155.86,31.25 -117.19,16.55 -237.02,19.05 -355.12,24.6 -257.87,12.13 -519.44,5.58 -776.6,-17.34 -78.78,-7.01 -157.99,-17.06 -236.36,-27.9 -49.63,-6.87 -110.27,-15.43 -142.45,-58.42 -13.12,-17.55 -11.23,-41.5 -11.6,-62.07 -0.63,-34.93 -0.84,-69.87 -0.88,-104.8 -0.08,-62.75 -2.22,-126.17 0.08,-189.11 -4.64,-360.37 1.72,-721.24 1.98,-1081.49 0.07,-102.97 2.24,-206.3 1.83,-309.31 -0.51,-15.07 -0.88,-30.28 -0.2,-45.14 -0.01,-0.23 0,-0.47 -0.01,-0.7 0,-0.12 0.05,-0.2 0.06,-0.3 1.98,-41.02 12.27,-79.25 51.52,-104.04 37.75,-23.85 91.01,-27.88 133.96,-34.68 56.01,-8.86 112.64,-13.18 169.21,-16.61 250.32,-15.17 499.49,-16.29 750.1,-11.99 126.72,2.17 253.38,4.93 379.46,18.98 74.03,8.25 155.33,7.75 226.05,32.83 67.59,23.97 75.2,82.54 82.14,146.4 7.7,70.84 4.58,141.68 4.2,212.73 -0.37,67.05 0.65,134.15 0.93,201.2 0.01,1.08 -0.23,2.01 -0.56,2.85 0.12,10 0.28,20 0.41,30 2.91,242.79 5.09,485.62 6.51,728.44 0.54,0.71 0.95,1.58 0.94,2.73 -0.29,94.89 2.71,190.08 2.33,285.09 -0.22,53.43 -0.44,106.87 -0.64,160.28 -0.17,43.51 10.16,100.03 -20.04,135.26"
         style="fill:#291413;fill-opacity:1;fill-rule:nonzero;stroke:none"
         id="path110" />
      <path
         d="m 1832.03,1647.69 c -27.39,-2.15 -54.64,-6.56 -81.32,-13.03 -12.21,-2.96 -87.18,-26.33 -59.99,-51.19 1.09,-1.01 2.77,-0.56 3.23,0.85 10.81,33.51 56.81,38.65 87.32,44.3 20.37,3.77 41.03,6.13 61.68,7.58 6.98,0.5 20.11,-1.88 25.16,4.13 0.94,1.13 1.4,2.74 0.53,4.09 -6.09,9.31 -27.61,3.96 -36.61,3.27"
         style="fill:#291413;fill-opacity:1;fill-rule:nonzero;stroke:none"
         id="path112" />
      <path
         d="m 2335.71,1668.66 c -55.78,3.24 -112.41,-0.75 -168.17,-3.32 -49.54,-2.26 -103.37,1.65 -151.76,-9.49 -1.54,-0.35 -1.56,-2.77 0,-3.12 48.34,-10.72 102.6,-2.91 151.76,-0.9 55.98,2.3 112.29,2.92 168.17,6.61 6.58,0.43 6.61,9.84 0,10.22"
         style="fill:#291413;fill-opacity:1;fill-rule:nonzero;stroke:none"
         id="path114" />
      <path
         d="m 2476.64,1671.63 c -10.61,4.6 -21.69,3.03 -33.04,2.25 -12.43,-0.85 -25.08,-0.88 -36.85,-5.31 -2.64,-0.99 -2.7,-4.45 0,-5.41 11.95,-4.31 24.34,-3.17 36.85,-2.73 11.23,0.41 22.67,-0.39 33.04,4.31 2.59,1.17 2.65,5.74 0,6.89"
         style="fill:#291413;fill-opacity:1;fill-rule:nonzero;stroke:none"
         id="path116" />
      <path
         d="m 3171.51,1634.65 c 3.77,0.26 4.77,5.63 0.91,6.74 -52.25,14.74 -112.39,13.63 -166.44,17.75 -53.32,4.06 -113.47,12.67 -166.2,2.19 -2.41,-0.49 -2.38,-4.33 0,-4.82 48.57,-10.03 101.65,-6 151.2,-8.98 58.92,-3.55 121.85,-16.91 180.53,-12.88"
         style="fill:#291413;fill-opacity:1;fill-rule:nonzero;stroke:none"
         id="path118" />
      <path
         d="m 3323.3,1660.48 c -12.5,-43.18 -42.39,-65.64 -83.65,-80.22 -32.88,-11.61 -68.26,-9.03 -100.99,-19.33 -1.52,-0.49 -1.56,-2.68 0,-3.13 67.85,-19.85 184.17,22.96 195.93,99.55 1.12,7.31 -9.14,10.56 -11.29,3.13"
         style="fill:#291413;fill-opacity:1;fill-rule:nonzero;stroke:none"
         id="path120" />
      <path
         d="m 3081.23,1556.81 c -5.32,-0.86 -10.12,-2.59 -14.97,-4.88 -1.39,-0.65 -1.39,-3 0,-3.66 5.03,-2.36 9.64,-3.8 15.26,-3.71 5.19,0.1 12.14,1.87 12.7,7.85 0.6,6.47 -9.5,4.96 -12.99,4.4"
         style="fill:#291413;fill-opacity:1;fill-rule:nonzero;stroke:none"
         id="path122" />
      <path
         d="m 1701.34,1755.13 c -1.63,4.45 -7.7,4.66 -9.25,0 -2.07,-6.22 -1.28,-12.67 -0.41,-19.05 0.88,-6.53 1.49,-15.3 7.02,-19.6 1.86,-1.46 4.57,-1.54 5.88,0.75 3.02,5.27 1.4,11.23 0.6,17 -0.96,6.83 -1.46,14.39 -3.84,20.9"
         style="fill:#291413;fill-opacity:1;fill-rule:nonzero;stroke:none"
         id="path124" />
      <path
         d="m 1720.2,1662.56 c -0.81,7.66 -2.9,15.74 -5.8,22.87 -1.48,3.6 -6.18,3.84 -7.58,0 -2.9,-7.97 -0.66,-18.32 3.32,-25.59 2.45,-4.49 10.65,-2.74 10.06,2.72"
         style="fill:#291413;fill-opacity:1;fill-rule:nonzero;stroke:none"
         id="path126" />
      <path
         d="m 2314.18,1836 c 7.07,1.17 4.82,11.48 -1.62,11.87 -119.29,7.24 -239.64,1.36 -359.1,2.14 -57.64,0.37 -116.69,3.54 -172.29,19.78 -55.08,16.08 -72.01,52.23 -93.72,100.72 -1.14,2.55 -4.98,1.14 -4.99,-1.35 -0.52,-102.3 116.4,-123.52 194.93,-131.31 81.35,-8.05 163.77,-1.85 245.33,-1.51 63.28,0.27 128.68,-10.69 191.46,-0.34"
         style="fill:#291413;fill-opacity:1;fill-rule:nonzero;stroke:none"
         id="path128" />
      <path
         d="m 3320.72,1971.48 c 0.52,10.31 -15.31,10.19 -15.96,0 -5.12,-80.56 -67.62,-107.19 -139.27,-114.87 -86.71,-9.27 -176.17,-8.64 -263.27,-7.47 -88.26,1.17 -176.47,-0.86 -264.68,-3.95 -46.72,-1.64 -93.44,-2.87 -140.18,-3.63 -41.48,-0.66 -84.26,2.74 -125.24,-4.33 -2.36,-0.41 -2.31,-4.25 0,-4.7 45.67,-8.94 94.49,-4.18 140.82,-3.31 51.91,0.99 103.82,2.33 155.75,3.28 108.42,1.97 216.62,0.21 325.02,0.57 112.22,0.37 318.94,-20.86 327.01,138.41"
         style="fill:#291413;fill-opacity:1;fill-rule:nonzero;stroke:none"
         id="path130" />
      <path
         d="m 1674.81,2323.39 c -0.42,4.57 -6.71,4.57 -7.11,0 -3.35,-37.82 -2.42,-75.92 -2.53,-113.85 -0.15,-56.32 -4.71,-115.03 2.03,-170.92 0.5,-4.1 7.28,-6 7.96,-1.08 7.2,52.24 3.2,106.78 3.03,159.45 -0.13,42.07 0.4,84.46 -3.38,126.4"
         style="fill:#291413;fill-opacity:1;fill-rule:nonzero;stroke:none"
         id="path132" />
      <path
         d="m 1667.95,2376.64 c 0.49,-4.2 6.25,-4.3 6.61,0 5.5,65.9 0.41,133.48 -0.79,199.54 -1.15,64.01 -2.24,128.01 -3.56,192.01 -1.41,68.63 -5.63,137.19 -6.79,205.78 -0.03,1.84 -2.84,1.84 -2.87,0 -0.84,-68.61 -1.74,-137.14 -0.99,-205.78 0.64,-59.06 1.53,-118.14 2.39,-177.21 1.03,-70.97 -2.24,-143.79 6,-214.34"
         style="fill:#291413;fill-opacity:1;fill-rule:nonzero;stroke:none"
         id="path134" />
      <path
         d="m 1666.72,3041.1 c 3.48,42.22 -1.4,86.31 -2.47,128.7 -0.87,34.57 0.77,72.32 -10.26,105.49 -0.49,1.47 -2.41,1.1 -2.57,-0.35 -4.37,-38.71 0.08,-79.38 0.71,-118.3 0.64,-38.45 -2.21,-78.96 5.29,-116.8 1.11,-5.56 8.89,-3.75 9.3,1.26"
         style="fill:#291413;fill-opacity:1;fill-rule:nonzero;stroke:none"
         id="path136" />
      <path
         d="m 1654.83,3327.62 c 3.34,9.49 1.57,19.05 0.91,28.84 -0.58,8.6 5.49,19.71 0.92,27.28 -0.77,1.27 -2.37,2.4 -3.93,2.25 -22.93,-2.27 -10.24,-47.77 -1.89,-58.89 1.15,-1.53 3.33,-1.39 3.99,0.52"
         style="fill:#291413;fill-opacity:1;fill-rule:nonzero;stroke:none"
         id="path138" />
      <path
         d="m 1692.09,3413.93 c 62.51,1.91 125.96,18.98 188.59,24.83 59.33,5.53 119.55,6.03 178.53,14.27 5.67,0.79 4.17,9.86 -1.32,9.79 -63.85,-0.69 -128.51,-7.74 -192.07,-13.69 -56.44,-5.29 -122.78,-7.61 -174.87,-31.01 -2.07,-0.94 -0.99,-4.25 1.14,-4.19"
         style="fill:#291413;fill-opacity:1;fill-rule:nonzero;stroke:none"
         id="path140" />
      <path
         d="m 2106.51,3455.72 c 5.79,0.37 11.88,-0.07 17.71,-0.07 5.46,0.02 11.52,-1.07 16.46,1.5 2.07,1.07 2.18,3.91 0.71,5.49 -4.35,4.66 -11.23,3.97 -17.17,3.61 -7.11,-0.43 -12.56,-3.82 -18.78,-6.58 -1.93,-0.85 -0.96,-4.07 1.07,-3.95"
         style="fill:#291413;fill-opacity:1;fill-rule:nonzero;stroke:none"
         id="path142" />
      <path
         d="m 2191.79,3461.09 c 35.91,-6.58 73.39,-3.95 109.78,-3.48 46.85,0.61 93.83,0.14 140.65,1.88 6.82,0.26 6.83,10.36 0,10.6 -41.62,1.42 -83.4,-0.06 -125.03,-0.65 -41.43,-0.58 -84.56,2.06 -125.4,-5.58 -1.37,-0.26 -1.38,-2.51 0,-2.77"
         style="fill:#291413;fill-opacity:1;fill-rule:nonzero;stroke:none"
         id="path144" />
      <path
         d="m 2908.99,3452.28 c 55.24,-9.38 113.92,-5.36 169.89,-10.06 70.8,-5.94 137.61,-23.29 207.08,-35.42 6.33,-1.11 8.49,7.14 2.62,9.49 -56.31,22.58 -121.17,29.05 -181.13,35.9 -63.33,7.24 -135.2,16.95 -198.46,6.59 -3.23,-0.54 -3.22,-5.95 0,-6.5"
         style="fill:#291413;fill-opacity:1;fill-rule:nonzero;stroke:none"
         id="path146" />
      <path
         d="m 3347.25,3380.62 c -5.9,-11.24 -8.46,-23.85 -11.65,-36.07 -3.42,-13.09 -9.96,-26.9 -7.89,-40.49 0.41,-2.63 4.49,-3.65 6.15,-1.63 7.68,9.43 9.03,21.98 11.98,33.57 3.56,13.99 8,28.57 6.87,43.13 -0.21,2.72 -4,4.25 -5.46,1.49"
         style="fill:#291413;fill-opacity:1;fill-rule:nonzero;stroke:none"
         id="path148" />
      <path
         d="m 3328.83,3024.89 c 0.49,-5.05 8.21,-6.94 9.42,-1.27 6.61,30.95 3.87,65.27 3.68,96.81 -0.31,49.43 4.1,101.65 -4.36,150.34 -0.29,1.7 -3.03,1.65 -3.36,0 -9.44,-46.14 -5.33,-95.85 -4.82,-142.81 0.36,-33.89 -3.83,-69.48 -0.56,-103.07"
         style="fill:#291413;fill-opacity:1;fill-rule:nonzero;stroke:none"
         id="path150" />
      <path
         d="m 3069.95,2629.15 c 14.88,39.88 28.65,80.16 45.98,119.19 15.53,35 32.13,75.78 16,113.15 6.25,-3.81 12.49,-7.61 18.56,-11.57 30.33,-19.76 58.02,-42.51 83.37,-68.28 27.06,-27.51 45.38,-55.47 37.54,-95.26 -3.67,-18.62 -12.01,-35.69 -20.14,-52.82 -60.44,-1.19 -120.89,-2.91 -181.31,-4.41 z m -27.6,-44.07 c -2.27,9.4 -4.55,18.82 -6.93,28.2 6.15,0.01 12.29,0.02 18.43,0.06 -4.55,-12.99 -8.61,-23.39 -11.5,-28.26 z m -39.52,148.62 c -17.72,63.05 -33.69,127.13 -50.97,190.73 55.07,-18.8 126.38,-12.75 164.78,-63.32 28.83,-37.94 -11.62,-104.65 -27.51,-140.08 -4.15,-9.27 -17.82,-55.5 -29.98,-92.14 -6.88,-0.17 -13.77,-0.35 -20.65,-0.5 -2.33,-0.06 -4.66,-0.07 -6.98,-0.12 -9.15,35.26 -18.84,70.37 -28.69,105.43 z m 333.26,221.74 c -2.29,-107.32 -3.91,-214.65 -5.37,-321.96 -1.12,0.68 -2.42,1.19 -4.09,1.18 -19.76,-0.18 -39.53,-0.5 -59.3,-0.85 19.7,42.89 30.11,87.83 -0.67,129.97 -36.72,50.26 -100.66,103.03 -161.1,128.94 -41.32,30.42 -114.01,41.44 -156.84,43.33 -9.59,34.9 -19.75,69.56 -30.78,103.82 -9.81,55.61 -35.92,111.46 -94.36,125.52 -39.53,9.52 -83.53,4.86 -123.9,7.43 -43.82,2.81 -89.18,12.42 -133.46,10.67 -34.9,6.53 -71.39,-6.26 -109.64,-20.48 -88.31,-32.81 -176.7,-65.24 -264.9,-98.35 -79.77,-29.94 -162.6,-53.4 -238.9,-91.65 -43.76,-21.92 -128.48,-52.99 -107.64,-116.02 1.57,-4.75 9.04,-4.1 8.93,1.21 -0.91,46.52 30.55,60.36 66.42,81.34 33.5,19.6 68.46,36.55 104.53,50.85 65.25,25.86 132.84,46.61 198.54,71.49 64.93,24.59 129.6,49.42 195.03,72.7 66.98,23.81 126.85,59.52 191.88,12.38 5.66,-4.11 12.43,4.96 7.39,9.59 -3.02,2.8 -6.07,5.33 -9.11,7.67 51.19,-5.7 103.65,-7.87 153.73,-8.8 41.52,-0.77 83.43,-1.69 110.12,-38.09 20.15,-27.49 25.12,-62.31 36.27,-93.61 14.89,-89.5 45.31,-177.75 69.89,-264.51 12.26,-43.3 25.45,-87.07 37.57,-131.16 -45.63,-0.81 -91.27,-1.16 -136.91,-1.42 -35.61,-0.19 -72.78,2.38 -108.87,-0.05 -5.14,16.71 -10.46,33.31 -14.68,49.74 -12.32,47.99 -23.57,96.26 -35.08,144.45 -3.89,16.26 -7.92,32.49 -11.92,48.72 10.12,20.26 21.53,39.55 36.22,56.22 32.1,36.43 94.25,7.81 134.71,13.05 5.17,0.67 7.57,8.95 1.35,10.04 -42.63,7.46 -99.28,19.14 -137.58,-6.63 -18.11,-12.19 -29.19,-34.79 -38.92,-55.43 -6.54,26.16 -13.27,52.28 -20.36,78.31 -5.98,21.93 -11.68,44.79 -18.55,67.23 1.6,0.51 3.23,1.05 4.82,1.56 36.13,11.61 73.74,22.52 108.67,37.25 5.82,2.45 3.74,10.53 -2.62,9.49 -32.77,-5.34 -64.35,-19 -95.66,-29.83 -6.32,-2.19 -12.74,-4.17 -19.19,-6.08 -6.91,20.89 -15.05,41.24 -25.82,59.86 -1.09,1.89 -3.61,0.54 -3.3,-1.39 3.42,-21.01 9.17,-41.76 15.51,-62.39 -25.89,-7.18 -52.16,-13.59 -76.68,-23.68 -1.55,-0.63 -1.35,-2.78 0.4,-2.94 27.15,-2.28 54.21,5.37 80.3,13.76 5.51,-17.35 11.19,-34.65 16.04,-51.92 9.99,-35.53 19.02,-71.34 27.77,-107.2 -17.01,-33.37 -34.47,-68.28 -42.62,-104.98 -0.48,-2.14 2.35,-3.39 3.53,-1.49 16.97,27.4 29.37,58.77 43.31,89.06 1.57,-6.51 3.16,-13 4.72,-19.49 16.7,-69.18 34.37,-137.86 52.68,-206.47 -7.41,-0.78 -14.8,-1.72 -22.06,-3.07 -2.57,-0.49 -2.57,-4.7 0,-5.18 8.28,-1.54 16.69,-2.54 25.15,-3.29 5.6,-20.88 11.23,-41.74 16.94,-62.63 1.48,-5.42 10.63,-4.5 10.04,1.36 -2.02,20.15 -7.12,40.27 -13,60.29 29.56,-1.45 59.68,0.24 88.84,0.21 52.28,-0.07 104.56,0.26 156.83,0.14 14.44,-53.8 26.95,-108.04 33.87,-162.5 0.79,-6.23 10.98,-9.17 12.12,-1.64 6.11,40.36 -11.06,81.63 -20.21,120.56 -0.08,0.37 -0.18,0.73 -0.26,1.09 0.65,0.5 1.24,1.08 1.53,1.77 5.89,13.52 11.34,27.17 16.62,40.9 59.95,0.57 119.86,2.41 179.79,3.83 -3.06,-7.05 -5.85,-14.19 -8,-21.55 -0.12,-0.42 -0.09,-0.79 -0.11,-1.19 -14.9,-36.62 -26.63,-74.88 -42.28,-110.99 -11.6,-26.79 -24.15,-52.84 -53.43,-63.88 -20.42,-7.71 -44.4,-3.4 -65.71,-5.33 -3.15,-0.29 -4.16,-4.87 -0.78,-5.76 43.67,-11.33 87.56,-5.13 116.25,31.35 16.73,21.26 26.4,48.65 36.13,73.63 13.2,33.92 26.08,68.97 36.24,104.11 21.5,0.47 43.01,0.86 64.52,1.07 1.57,0.01 2.82,0.48 3.91,1.13 -0.53,-39.58 -1.11,-79.16 -1.59,-118.75 -1.16,-93.82 -2.11,-187.63 -3.36,-281.45 -0.62,-46.83 3.22,-95.04 0.61,-141.66 -0.2,-3.54 5.29,-3.52 5.49,0 7.87,140.73 7.81,282.05 9.06,423.11 1.34,151.25 6.49,303.19 -0.43,454.36 -0.12,2.72 -4.18,2.74 -4.23,0"
         style="fill:#291413;fill-opacity:1;fill-rule:nonzero;stroke:none"
         id="path152" />
      <path
         d="m 3321.09,2035.88 c 0.43,0.74 -1.84,-2.06 -2.18,-2.77 -1.02,-2.12 -1.66,-4.33 -2.22,-6.6 -1.29,-5.16 -1.97,-10.4 -0.76,-15.64 1.48,-6.4 10.35,-5.66 12.19,0 1.42,4.39 1.91,9.22 2.18,13.81 0.15,2.4 -0.03,4.6 -0.4,6.99 -0.2,0.87 -0.5,1.7 -0.9,2.5 -0.04,0.07 -2.35,3.37 -1.45,1.71 -1.35,2.51 -5.08,2.34 -6.46,0"
         style="fill:#291413;fill-opacity:1;fill-rule:nonzero;stroke:none"
         id="path154" />
      <path
         d="m 1905.57,3313.15 c 0.75,15.66 -0.46,28.6 -6.35,43.12 -0.44,1.1 -2.25,1.07 -2.2,-0.29 0.6,-16.28 0,-32.73 0.09,-49.04 0.07,-12.72 -1.77,-26.08 3.56,-37.85 0.83,-1.84 4.14,-1.45 4.45,0.58 2.14,14.07 -0.25,29.1 0.45,43.48"
         style="fill:#291413;fill-opacity:1;fill-rule:nonzero;stroke:none"
         id="path156" />
      <path
         d="m 1897.75,3252.54 c -1.91,-6.13 -4.09,-15.17 0.01,-20.85 1.45,-1.99 3.95,-1.99 5.39,0 4.1,5.68 1.92,14.72 0.01,20.85 -0.83,2.68 -4.58,2.68 -5.41,0"
         style="fill:#291413;fill-opacity:1;fill-rule:nonzero;stroke:none"
         id="path158" />
      <path
         d="m 2630.93,2295.23 c -1.86,-1.12 -1.14,-4.28 1.14,-4.19 33.88,1.42 78.62,12.97 115.53,32.33 41.83,4.16 84.02,22.1 122.85,35.82 50.57,17.9 102.09,34.25 152.18,53.3 7.22,2.75 4.51,13.29 -3.21,11.65 -52.2,-11.06 -102.66,-33.18 -152.76,-51.2 -27.07,-9.74 -55.34,-17.17 -83.1,-25.59 6.42,5.52 12.19,11.35 16.95,17.55 30.1,39.18 15.34,111.22 3.9,154.52 -1.7,6.45 -11.48,5.03 -11.51,-1.56 -0.23,-46.74 19.66,-91.94 -0.56,-137.55 -24.64,-55.5 -114.54,-57.39 -161.41,-85.08"
         style="fill:#291413;fill-opacity:1;fill-rule:nonzero;stroke:none"
         id="path160" />
      <path
         d="m 1818.56,2459.13 c 4.39,9.39 4.55,19.91 5.54,30.09 1.26,12.81 9.06,25.43 8.76,37.9 -0.07,2.98 -3.57,5.46 -6.29,3.6 -10.1,-6.87 -12.11,-21.38 -13.56,-32.83 -1.63,-12.84 -2.97,-26.69 2.65,-38.76 0.51,-1.09 2.39,-1.09 2.9,0"
         style="fill:#291413;fill-opacity:1;fill-rule:nonzero;stroke:none"
         id="path162" />
      <path
         d="m 1833.07,2116.12 c 7.32,48.69 -3.34,100.5 -4.97,149.56 -1.67,50.25 12.78,105.23 -7.29,153.02 -0.59,1.4 -2.83,1.36 -2.82,-0.39 0.48,-99.79 -11.07,-203.18 6.3,-302.19 0.76,-4.31 8.11,-4.4 8.78,0"
         style="fill:#291413;fill-opacity:1;fill-rule:nonzero;stroke:none"
         id="path164" />
      <path
         d="m 1978.52,1933.68 c 66.74,-3.31 133.74,-2.63 200.53,-2.84 73.42,-0.21 150.9,-9.44 223.81,-0.83 8.4,0.99 8.9,13.34 0,13.46 -122.04,1.65 -244.14,0.16 -366.19,1.94 -38.55,0.57 -77.76,0.15 -115.75,7.46 -50.27,9.68 -73.24,42.3 -81,90.92 -0.38,2.45 -3.84,1.6 -4.04,-0.55 -7.75,-86.41 72.66,-106.06 142.64,-109.56"
         style="fill:#291413;fill-opacity:1;fill-rule:nonzero;stroke:none"
         id="path166" />
      <path
         d="m 1831.06,2084.45 c 0.07,-2.81 1.34,-8.09 5.35,-6.99 4.09,1.13 3.81,6.14 3.66,9.48 -0.16,4.02 -1.71,7.97 -4.06,11.13 -2.06,2.75 -6.55,1.22 -5.7,-2.4 0.86,-3.7 0.66,-7.47 0.75,-11.22"
         style="fill:#291413;fill-opacity:1;fill-rule:nonzero;stroke:none"
         id="path168" />
      <path
         d="m 2818.62,1919 c 50.19,2.38 99.65,5.33 149.95,4.43 50.11,-0.89 100,-1.29 149.36,8.42 9.57,1.88 5.38,15.91 -3.97,14.42 -82.4,-13.14 -165.25,-2.68 -248.06,-8.57 -88.11,-6.29 -176.41,-6.98 -264.71,-7.06 -36.79,-0.04 -73.5,-3.24 -110.3,-2.36 -59.41,1.44 -86.28,29.74 -88.35,86.79 -2.43,66.7 15.07,132.34 29.25,197.59 46.37,18.1 92.36,37.11 139.19,54.63 6.59,2.47 3.91,11.26 -2.85,10.33 -32.69,-4.44 -62.28,-20.86 -91.84,-34.73 -13.58,-6.38 -27.57,-11.97 -41.73,-17.21 2.73,13.09 5.29,26.18 7.45,39.24 0.45,2.77 -3.25,3.83 -4.21,1.16 -5.23,-14.61 -10.25,-29.55 -14.99,-44.66 -27.43,-9.67 -55.41,-18.13 -82.67,-27.46 -41.02,-14.08 -81.16,-27.17 -124.45,-32.24 -47.53,-5.57 -87.46,9.15 -131.79,22.42 -1.89,0.57 -3.61,-2.09 -1.99,-3.44 59.55,-50.05 150.32,-34.38 218.52,-14.19 40.23,11.92 79.37,26.11 118.16,41.07 -19.52,-65.62 -32.78,-134.85 -30.44,-202.22 2.46,-70.6 52.1,-91.28 116.17,-92.88 103.97,-2.58 210.39,1.58 314.3,6.52"
         style="fill:#291413;fill-opacity:1;fill-rule:nonzero;stroke:none"
         id="path170" />
      <path
         d="m 3278.86,2281.93 c -21.44,81.61 -153.71,107.3 -222.58,117.47 -2.06,0.3 -3.72,-2.52 -1.54,-3.65 62.55,-32.22 136.18,-32.11 189.29,-83.9 42.47,-41.42 19.73,-101.7 19.93,-152.84 0.18,-48.11 20.39,-122.82 -17.79,-160.33 -4.72,-4.65 1.3,-12.13 6.96,-9 36.07,19.94 29.28,80.06 28.34,114.73 -0.87,32.33 -4.53,63.35 -0.98,95.71 3.1,28.32 5.68,54.02 -1.63,81.81"
         style="fill:#291413;fill-opacity:1;fill-rule:nonzero;stroke:none"
         id="path172" />
      <path
         d="m 2843.33,2313.92 c -2.4,0.48 -3.84,-2.64 -1.68,-4 50.23,-31.4 116,-37.35 172.7,-51.29 29.54,-7.25 54.11,-14 78.68,-15.71 14.23,-26.74 6.71,-72.93 5.73,-101.68 -0.92,-26.52 -12,-66.89 -3.53,-92.29 1.2,-3.62 6.57,-4.94 8.55,-1.12 14.54,28.12 8.17,79.47 9.15,110.31 0.58,18.17 6.76,63.41 -6.08,84.37 18.55,0.25 37.6,3.8 59.29,12.65 5.63,2.3 5.65,12.32 -1.57,11.64 -26.6,-2.52 -48.9,-14.17 -76.6,-9.81 -28.02,4.42 -55.82,13.28 -83.46,19.65 -53.58,12.36 -107.3,26.64 -161.18,37.28"
         style="fill:#291413;fill-opacity:1;fill-rule:nonzero;stroke:none"
         id="path174" />
      <path
         d="m 3095.8,1993.27 c 3.87,7.52 3.86,16.61 0.6,24.3 -1.16,2.74 -6.05,2.74 -7.21,0 -2.81,-6.57 -3.57,-14.34 -3.88,-21.46 -0.24,-5.51 7.93,-7.79 10.49,-2.84"
         style="fill:#291413;fill-opacity:1;fill-rule:nonzero;stroke:none"
         id="path176" />
      <path
         d="m 2637.41,1988.9 c 8.09,-0.14 17.22,-1.99 24.29,2.55 2.37,1.53 2.37,4.83 0,6.35 -7.07,4.54 -16.2,2.71 -24.29,2.56 -9.48,-0.17 -17.75,-0.56 -26.71,-3.81 -1.9,-0.68 -1.9,-3.16 0,-3.84 8.96,-3.25 17.23,-3.65 26.71,-3.81"
         style="fill:#291413;fill-opacity:1;fill-rule:nonzero;stroke:none"
         id="path178" />
      <path
         d="m 2707.92,1988.01 c 39.86,-8.91 83.32,-4.97 124.02,-5.47 51.03,-0.61 103.54,-4.71 154.35,0.15 6.43,0.62 6.41,9.34 0,9.98 -45.8,4.5 -92.89,2.08 -138.91,2.64 -45.45,0.57 -94.87,6.5 -139.46,-3.33 -1.98,-0.44 -1.97,-3.53 0,-3.97"
         style="fill:#291413;fill-opacity:1;fill-rule:nonzero;stroke:none"
         id="path180" />
      <path
         d="m 2716.04,2162.82 c 5.75,17.8 1.7,41.03 -1.26,59.15 -0.27,1.68 -3.09,1.68 -3.37,0 -2.95,-18.12 -7.01,-41.35 -1.26,-59.15 0.94,-2.91 4.95,-2.91 5.89,0"
         style="fill:#291413;fill-opacity:1;fill-rule:nonzero;stroke:none"
         id="path182" />
      <path
         d="m 2043.52,2014.18 c 25.46,8.06 52.49,14.3 76.87,25.14 4.12,1.84 2.07,8.8 -2.3,8.47 -23.54,-1.7 -46.25,-11.12 -68.42,-18.78 -24.59,-8.48 -49.98,-15.34 -73.85,-25.67 -1.95,-0.83 -0.89,-3.86 1.04,-3.83 23.07,0.37 44.83,7.75 66.66,14.67"
         style="fill:#291413;fill-opacity:1;fill-rule:nonzero;stroke:none"
         id="path184" />
      <path
         d="m 2244.41,2070.44 c 4.01,2.62 2.96,10.58 -2.69,9.91 -3.7,-0.43 -7.92,-0.27 -11.37,-1.76 -2.32,-1 -5.3,-4.03 -3.77,-6.78 3.63,-6.55 12.48,-4.88 17.83,-1.37"
         style="fill:#291413;fill-opacity:1;fill-rule:nonzero;stroke:none"
         id="path186" />
      <path
         d="m 1946.76,2904.65 c 1.84,0 3.7,0.07 5.55,0.08 0.17,-7.34 0.41,-14.67 0.52,-22.04 0.19,-11.97 -2.2,-27.5 4.8,-37.83 1.35,-1.97 4.84,-2.54 6.03,0 5.86,12.52 2.19,29.68 1.42,43.15 -0.33,5.8 -0.81,11.43 -1.72,16.9 39.39,1.16 79.03,5.85 118.3,8.42 40.05,2.63 82.49,4.83 120.95,17.01 4.55,1.45 3.99,9.21 -1.18,8.69 -45.08,-4.51 -89.61,-11.27 -134.9,-14.43 -34.94,-2.44 -70.79,-3.33 -104.99,-11.48 -1.46,5.24 -3.53,10.33 -6.6,15.26 -0.76,1.23 -2.63,0.71 -2.67,-0.71 -0.16,-5.7 -0.06,-11.37 0.03,-17.04 -2.05,-0.58 -4.1,-1.07 -6.12,-1.7 -2.33,-0.74 -1.94,-4.28 0.58,-4.28"
         style="fill:#291413;fill-opacity:1;fill-rule:nonzero;stroke:none"
         id="path188" />
      <path
         d="m 2332.01,2928.93 c 1.1,0.27 2.22,1.29 2.44,2.44 1.57,8.24 -9.14,13.23 -15.45,15.79 -7.27,2.95 -16.93,5.59 -24.37,1.98 -2.31,-1.12 -2.16,-4.75 0,-5.92 6.09,-3.28 13.49,-3.89 19.86,-6.74 5.46,-2.45 11.23,-9.14 17.52,-7.55"
         style="fill:#291413;fill-opacity:1;fill-rule:nonzero;stroke:none"
         id="path190" />
      <path
         d="m 2476.28,2975.69 c 15.3,5.48 32.33,7.94 46.51,15.94 3.36,1.9 1.64,6.62 -1.86,6.86 -16.34,1.08 -32.57,-6.19 -47.71,-11.69 -17.81,-6.46 -35,-14.08 -50.5,-25.06 -1.75,-1.24 -0.73,-4.07 1.49,-3.53 17.87,4.37 34.79,11.29 52.07,17.48"
         style="fill:#291413;fill-opacity:1;fill-rule:nonzero;stroke:none"
         id="path192" />
      <path
         d="m 3043.58,2419.48 c 1.79,-0.11 3.79,0.35 5.23,0.88 5.22,1.92 4.53,9.64 -1.32,9.83 -3.29,0.1 -5.92,-1.43 -7.71,-4.15 -0.76,-1.16 -0.82,-3.09 -0.05,-4.29 -0.01,-0.56 -0.14,-1.11 -0.03,-1.72 0.38,-2.13 2.79,-1.86 3.88,-0.55"
         style="fill:#291413;fill-opacity:1;fill-rule:nonzero;stroke:none"
         id="path194" />
      <path
         d="m 2870.6,2679.87 c 13.15,10.98 18.48,29.66 24.45,45.34 7.36,19.32 12.96,39.43 20.97,58.49 0.72,1.72 -1.91,2.56 -2.84,1.2 -9.59,-13.96 -17.22,-28.12 -23.59,-43.79 -7.63,-18.82 -20.16,-38.26 -24.62,-57.96 -0.78,-3.44 3.06,-5.42 5.63,-3.28"
         style="fill:#291413;fill-opacity:1;fill-rule:nonzero;stroke:none"
         id="path196" />
      <path
         d="m 1957.41,2994.81 c 0.38,-4.18 6.09,-4.17 6.48,0 5.26,55.87 3.51,112.63 4.09,168.71 0.57,55.5 4.71,112.45 -2.97,167.56 -0.29,2.02 -3.8,2.02 -4.09,0 -7.1,-50.19 -4.62,-101.74 -5.13,-152.33 -0.62,-61.06 -4,-123.07 1.62,-183.94"
         style="fill:#291413;fill-opacity:1;fill-rule:nonzero;stroke:none"
         id="path198" />
      <path
         d="m 1966.09,2078.47 c 4.02,6.15 3.23,15.2 3.31,22.3 0.09,8.74 -2.03,17.35 -6.76,24.66 -1.21,1.9 -4.31,1.21 -4.29,-1.15 0.04,-7.82 -0.14,-15.71 -0.67,-23.51 -0.49,-7.06 -1.74,-16.07 2.16,-22.3 1.49,-2.38 4.75,-2.3 6.25,0"
         style="fill:#291413;fill-opacity:1;fill-rule:nonzero;stroke:none"
         id="path200" />
      <path
         d="m 2239.11,2239.23 c 5.15,31.22 2.89,63.53 3.87,95.16 1.3,41.97 4.63,83.75 -0.25,125.59 -0.29,2.51 -3.54,2.47 -3.87,0 -4.72,-36.5 -5.59,-73.21 -7.17,-109.97 -1.57,-36.46 -6.11,-74.89 1.53,-110.78 0.61,-2.85 5.39,-3 5.89,0"
         style="fill:#291413;fill-opacity:1;fill-rule:nonzero;stroke:none"
         id="path202" />
      <path
         d="m 2309.66,2292.71 c 12.91,6.2 31.64,11.66 40.59,23.1 2.19,2.8 0.96,6.97 -2.96,7.13 -12.4,0.47 -23.35,-8.05 -33.84,-13.94 -14.62,-8.23 -30.07,-15.54 -43.5,-25.67 -1.32,-0.99 -1.12,-3.65 0.94,-3.49 13.95,1.14 26.31,6.88 38.77,12.87"
         style="fill:#291413;fill-opacity:1;fill-rule:nonzero;stroke:none"
         id="path204" />
      <path
         d="m 2949.25,2461.18 c 2.92,0.3 4.61,3.55 2.43,5.85 -10.66,11.29 -29.17,13.48 -43.72,17.23 -16.26,4.19 -32.13,8.13 -49,7.13 -1.28,-0.07 -1.82,-1.74 -0.67,-2.43 12.6,-7.65 26.13,-11.13 40.26,-14.97 15.8,-4.31 34.31,-14.43 50.7,-12.81"
         style="fill:#291413;fill-opacity:1;fill-rule:nonzero;stroke:none"
         id="path206" />
      <path
         d="m 2600.23,2395.37 c 21.79,8.16 43.38,16.8 65.21,24.9 21.99,8.17 49.14,13.21 68,27.34 2.6,1.94 2.14,6.97 -1.82,6.74 -23.4,-1.38 -47.61,-14.33 -69.26,-22.94 -22.43,-8.95 -43.74,-18.52 -63.81,-32.04 -1.94,-1.32 -0.76,-4.91 1.68,-4"
         style="fill:#291413;fill-opacity:1;fill-rule:nonzero;stroke:none"
         id="path208" />
      <path
         d="m 2466.93,2367.9 c 1.59,-2.2 4.57,-2.36 6.13,0 6.04,9.11 1.06,22.33 -2.43,31.69 -4.52,12.17 -12.15,21.53 -22.24,29.52 -1.89,1.5 -4.65,-0.33 -3.43,-2.63 5.17,-9.74 10.33,-19.72 14.24,-30.04 3.42,-9.04 2.09,-20.75 7.73,-28.54"
         style="fill:#291413;fill-opacity:1;fill-rule:nonzero;stroke:none"
         id="path210" />
      <path
         d="m 1955.52,2608.12 c 0.57,-21.38 1.49,-42.75 2.25,-63.95 -1.21,-0.07 -2.43,-0.12 -3.64,-0.18 -4.91,17.83 -9.85,35.63 -14.89,53.4 5.48,3.54 10.91,7.13 16.28,10.73 z m -168.46,-6.11 c 42.52,-0.02 86.4,-2.95 128.87,0.8 -23.49,-13.84 -46.52,-28.25 -67.38,-44.63 -1.17,-0.91 0.13,-2.53 1.34,-2.28 26.72,5.63 52.27,18.59 76.76,33.59 4.34,-15.46 8.59,-30.93 12.82,-46.4 -20.47,-1.49 -40.65,-3.85 -60.2,-7.76 -1.25,-0.25 -1.26,-2.28 0,-2.52 20.86,-4.04 42.58,-5.72 64.66,-6.05 1.29,-4.73 2.58,-9.45 3.88,-14.18 3.65,-13.37 7.32,-26.78 11.02,-40.2 -0.53,-80.32 -4.67,-161.83 4.03,-241.6 0.67,-6.09 8.81,-6.09 9.48,0 4.29,39.39 -1.14,81.26 -1.36,120.97 -0.14,25.53 0.03,51.03 0.23,76.55 21.57,-75.54 45.66,-150.79 78.88,-221.57 3.06,-6.5 14.08,-1.86 11.62,4.9 -32.68,89.67 -63.7,178.48 -90.15,269.9 0.01,3.63 0.06,7.24 0.07,10.86 0.03,11.44 0.17,22.99 0.35,34.6 41.8,1.23 84.14,5.85 123.76,7.59 81.65,3.56 165.8,0.34 246.92,9.02 5.61,0.6 5.63,8.16 0,8.73 -75.67,7.65 -155.65,-2.07 -231.52,-5.55 -44.85,-2.07 -92.26,-0.53 -138.88,-2.03 0.42,24.85 0.78,49.93 0.56,74.96 5.81,3.89 11.56,7.69 17.24,11.33 1.89,1.21 3.81,2.32 5.7,3.52 43.57,16.9 85.35,22.17 135.87,14.87 59.32,-8.55 107.92,-8.76 164.55,13.06 27.11,10.44 52.24,20.62 81.59,22.86 7.77,0.61 15.34,0.05 22.75,-1.28 5.36,-13.88 11.19,-27.51 18.07,-40.5 1.8,-3.42 6.6,-0.96 5.92,2.5 -2.26,11.42 -5.3,22.8 -8.81,34.12 22.29,-7.32 43.04,-20.78 62.88,-32.38 49.09,-28.7 95.93,-27.3 151.17,-30.3 7.65,-0.42 9.48,12.21 1.82,13.47 -29.56,4.86 -59.53,3.22 -89.2,7.55 -35.63,5.19 -67.49,31.43 -98.78,47.71 -11.33,5.89 -22.62,9.7 -33.86,11.96 -5.88,16.8 -12.49,33.43 -19,49.87 31.99,0.05 64.07,0.79 95.48,2.21 6.51,0.31 8.61,10.66 1.61,11.88 -33.89,5.93 -68.91,4.84 -103.86,3.16 -0.92,2.37 -1.85,4.75 -2.75,7.1 -13.62,35.82 -26.45,76.05 -49,107.28 -0.87,1.21 -2.68,0.49 -2.38,-1.02 7.57,-38.96 26.19,-76.84 41.16,-113.99 -20.4,-1.01 -40.73,-1.95 -60.74,-1.56 -45.96,0.9 -101.8,3.2 -140.01,-26.54 -1.37,-1.04 0.16,-2.85 1.51,-2.59 52.88,9.75 98.89,16.94 153.02,15.03 17.38,-0.61 34.99,-0.85 52.66,-0.94 5.84,-15.71 11.27,-31.77 17.01,-47.7 -34.35,2.72 -68.43,-8.09 -102.79,-21.47 -70.43,-27.42 -130.86,-7.69 -202.72,-6.46 -10.23,0.18 -20.99,-0.21 -31.86,-1.32 27.81,15.74 55.97,30.78 84.68,45.62 5.63,2.92 1.71,12.3 -4.32,10.25 -43.21,-14.65 -83.14,-39.47 -121.77,-64.21 -16.01,-5.15 -30.88,-12.75 -43.13,-23.48 -0.77,31.17 -2.79,62.1 -7.47,92.12 -0.32,2.1 -3.88,2.1 -4.2,0 -5.24,-34.49 -6.23,-70.08 -5.71,-105.85 -6.84,-3.97 -13.71,-7.93 -20.59,-11.91 -5.32,18.48 -10.73,36.93 -16.4,55.31 -15.23,49.32 -30.45,103.32 -60.13,146.14 -1.16,1.67 -3.78,0.66 -3.3,-1.4 11.6,-50.51 33.82,-99.13 49.48,-148.59 5.47,-17.25 10.61,-34.6 15.63,-51.99 -38.71,3.75 -78.65,1.19 -117.49,1.16 -40.3,-0.03 -82.72,3.67 -122.37,-4.23 -1.91,-0.38 -1.91,-3.47 0,-3.85 34.87,-6.94 71.65,-4.18 107.08,-4.22"
         style="fill:#291413;fill-opacity:1;fill-rule:nonzero;stroke:none"
         id="path212" />
      <path
         d="m 2683.71,2616.34 c 8.61,0.03 18.87,-1.06 25.84,4.63 1.88,1.54 1.88,5.25 0,6.79 -7.01,5.7 -17.24,4.59 -25.84,3.91 -7.49,-0.59 -17.71,-0.95 -21.92,-8.05 -0.69,-1.15 -0.55,-2.86 0.49,-3.78 5.68,-5.06 14.28,-3.53 21.43,-3.5"
         style="fill:#291413;fill-opacity:1;fill-rule:nonzero;stroke:none"
         id="path214" />
    </g>
  </g>
</svg>
